<?xml version="1.0" encoding="UTF-8"?>
<svg id="Layer_1" data-name="Layer 1" xmlns="http://www.w3.org/2000/svg" width="210" height="84" viewBox="0 0 210 84">
  <defs>
    <style>
      .cls-1 {
        fill: #ae285d;
        stroke-width: 0px;
      }
    </style>
  </defs>
  <g id="_ae285dff" data-name="#ae285dff">
    <path id="path5" class="cls-1" d="M55.53,24.14c2.1,3.6,4.21,7.19,6.28,10.8-3.35,5.91-6.65,11.85-10.12,17.69-1.33,2.24-2.62,4.51-3.94,6.76-4.26.03-8.52.02-12.78.02.13-.29.26-.59.42-.86,6.71-11.47,13.44-22.93,20.14-34.41Z"/>
    <path id="path7" class="cls-1" d="M148.24,32.99c2.36,4.39,4.71,8.78,7.06,13.17-.83.02-1.66-.03-2.49,0-.56-.97-1.04-1.98-1.58-2.95-2.09-.06-4.19-.02-6.28-.02-.5,1-1.06,1.98-1.59,2.96-.82,0-1.64.02-2.45,0,2.41-4.41,4.83-8.82,7.33-13.17M146,41.31c1.43.02,2.86.02,4.28.03-.72-1.33-1.36-2.7-2.13-4-.73,1.32-1.45,2.64-2.16,3.97Z"/>
    <path id="path9" class="cls-1" d="M156.67,32.94c3.56,3.09,7.11,6.18,10.62,9.32.1-2.83-.01-5.67.07-8.5.76.02,1.52.03,2.28.04-.02,4.37-.01,8.73-.02,13.1-2.34-1.94-4.58-3.99-6.89-5.97-1.28-1.1-2.56-2.21-3.78-3.37-.03,2.87.01,5.74-.05,8.61-.76,0-1.51-.02-2.27-.01,0-4.41-.03-8.82.02-13.22Z"/>
    <path id="path11" class="cls-1" d="M81.52,46.14c2.46-4.39,4.85-8.81,7.36-13.16,2.34,4.4,4.69,8.78,7.06,13.16-.84.02-1.68.02-2.52,0-.51-.98-1.03-1.96-1.52-2.95-2.1-.03-4.2,0-6.3,0-.55.99-1.04,2.01-1.63,2.98-.82-.02-1.63,0-2.45-.03M86.62,41.32c1.43,0,2.87.01,4.31,0-.72-1.32-1.36-2.69-2.13-3.99-.73,1.32-1.45,2.65-2.17,3.98Z"/>
    <path id="path13" class="cls-1" d="M116.48,34.12c1.2-.59,2.61-.67,3.91-.41,1.12.24,2.03,1.04,2.72,1.92-.61.31-1.21.62-1.81.95-.81-1.26-2.73-1.66-3.9-.68-.62.44-.57,1.54.13,1.88,1.57.87,3.48,1.05,4.88,2.25,1.42,1.2,1.37,3.61.05,4.88-1.41,1.43-3.65,1.74-5.53,1.21-1.57-.4-2.76-1.84-2.97-3.44.76-.17,1.53-.3,2.3-.42.09.75.37,1.57,1.08,1.94,1.11.6,2.73.45,3.49-.63.54-.73.38-1.86-.36-2.4-1.55-1.04-3.6-1.1-4.98-2.4-.73-.62-1.04-1.66-.79-2.59.2-.94.97-1.64,1.79-2.07Z"/>
    <path id="path15" class="cls-1" d="M96.68,33.84c.86-.11,1.74-.07,2.6-.07.93,1.38,1.86,2.76,2.78,4.14.98-1.36,1.93-2.75,2.89-4.12.89-.03,1.78-.04,2.67-.02-1.41,1.96-2.83,3.92-4.25,5.89,1.44,2.18,3.01,4.28,4.42,6.49-.85,0-1.7,0-2.54-.01-1.08-1.55-2.15-3.11-3.23-4.66-1.12,1.56-2.24,3.11-3.34,4.68-.86.02-1.72,0-2.58,0,1.49-2.19,3.07-4.32,4.62-6.47-1.33-1.96-2.7-3.91-4.05-5.86Z"/>
    <path id="path17" class="cls-1" d="M109.72,33.79c.77-.02,1.53-.02,2.29,0,0,4.13,0,8.25,0,12.38-.78,0-1.55,0-2.33,0,.03-4.12.02-8.25.03-12.37Z"/>
    <path id="path19" class="cls-1" d="M132.04,33.78c1.96.08,4.08-.27,5.89.69,1.76.94,2.17,3.74.54,5.01,1.02.4,2.01,1.16,2.28,2.28.43,1.37-.33,2.9-1.53,3.61-2.19,1.2-4.77.64-7.15.81-.07-4.13-.03-8.26-.03-12.4M134.32,35.56c0,1.18,0,2.36,0,3.53.85-.03,1.8.02,2.52-.51.74-.66.72-2.03-.1-2.62-.72-.45-1.6-.4-2.41-.41M134.33,40.71c0,1.2,0,2.41.02,3.61,1.14-.06,2.38.15,3.43-.42.94-.46,1.11-1.96.24-2.58-1.05-.81-2.45-.59-3.69-.62Z"/>
    <path id="path21" class="cls-1" d="M172.3,33.78c.76,0,1.52,0,2.29,0,0,1.63-.02,3.26.02,4.89,1.88-1.65,3.79-3.26,5.68-4.9,1.04,0,2.09.01,3.13,0-2.25,1.85-4.49,3.71-6.7,5.61,2.18,2.3,4.43,4.52,6.66,6.77-1.03-.01-2.07.07-3.1-.05-1.77-1.81-3.53-3.63-5.29-5.45-.13.17-.26.34-.38.51-.05,1.67,0,3.33-.03,5-.77,0-1.53.02-2.3.01,0-4.13.02-8.26.02-12.39Z"/>
    <path id="path23" class="cls-1" d="M55.53,46.08c4.28,0,8.55-.03,12.83.04,2.55,4.44,5.17,8.83,7.7,13.28-4.28.02-8.55,0-12.83,0-2.54-4.45-5.2-8.84-7.7-13.32Z"/>
  </g>
</svg>