<?xml version="1.0" encoding="UTF-8"?>
<svg id="Layer_1" data-name="Layer 1" xmlns="http://www.w3.org/2000/svg" width="210" height="84" viewBox="0 0 210 84">
  <defs>
    <style>
      .cls-1 {
        fill: #0033a1;
        stroke-width: 0px;
      }
    </style>
  </defs>
  <path class="cls-1" d="M52.96,45.68c2.5-5.36.7-11.73-4.23-15,1.91-1.97,3.99-3.92,6.18-5.78-2.55,1.52-4.98,3.24-7.24,5.16-5.85-3.05-13.07-.78-16.12,5.07-2.26,4.33-1.65,9.6,1.53,13.31-2.29,4.95-2.65,8.92-.67,10.26,2.16,1.44,6.86-1.17,9.71-5.42,0,0-4.36,3.93-6.75,3.03-1.47-.56-1.47-2.81-.26-6.04,4.73,3.47,11.28,2.99,15.46-1.13l.42.79c5.21-.42,20.75-.84,20.75-.84-.04-.73-10.32-.03-18.77-3.41ZM31.63,40.64c0-5.81,4.72-10.51,10.53-10.51,1.5,0,2.98.32,4.34.94-5.16,4.51-9.46,9.91-12.72,15.95-1.4-1.83-2.16-4.07-2.15-6.38ZM42.14,51.15c-2.36,0-4.65-.79-6.5-2.25,2.08-4.69,6.32-10.99,12.1-17.15,4.49,2.83,6.17,8.56,3.91,13.37-1.82-.82-3.51-1.92-4.99-3.26l3.17,5.95c-1.98,2.13-4.76,3.35-7.68,3.34Z"/>
  <polygon class="cls-1" points="124.23 39.55 126.17 36.96 119.39 36.96 121.06 34.75 127.85 34.75 129.8 32.16 116.26 32.16 106.95 44.51 120.49 44.51 122.43 41.93 115.65 41.93 117.44 39.55 124.23 39.55 124.23 39.55"/>
  <polygon class="cls-1" points="133.63 32.16 124.32 44.51 131.08 44.51 140.38 32.16 133.63 32.16 133.63 32.16"/>
  <polygon class="cls-1" points="156.13 32.16 151.41 38.43 149.96 32.16 144.68 32.16 135.37 44.51 139.84 44.51 144.51 38.31 145.95 44.51 151.28 44.51 160.59 32.16 156.13 32.16 156.13 32.16"/>
  <path class="cls-1" d="M178.2,32.16h-10.85c-1.79,0-3.47.84-4.54,2.27l-5.6,7.44c-.22.29-.34.64-.34,1,0,.91.74,1.65,1.65,1.66h10.85c1.79,0,3.48-.84,4.55-2.27l1.35-1.76h1.57l1.96-2.65h-8.31l-2.65,3.49c-.28.37-.72.59-1.18.59h-1.91c-.24,0-.43-.19-.43-.43h0c0-.09.03-.18.09-.26l4.41-5.91c.28-.37.72-.59,1.18-.59h1.91c.24,0,.43.19.43.43h0c0,.09-.03.18-.09.26l-.72.96h6.74l1.19-1.59c.55-.73.41-1.76-.32-2.31-.29-.22-.64-.34-1.01-.34l.06.02Z"/>
  <path class="cls-1" d="M110.72,33.82c0-.91-.74-1.65-1.65-1.65h-10.85c-1.79,0-3.48.84-4.55,2.27l-5.6,7.44c-.55.74-.39,1.77.34,2.32.28.21.63.32.98.33h10.85c1.79,0,3.48-.84,4.55-2.27l5.6-7.44c.22-.29.33-.64.33-1ZM103.17,35.43l-4.41,5.9c-.28.37-.72.59-1.18.59h-1.95c-.24,0-.43-.2-.43-.44,0-.09.03-.18.08-.25l4.41-5.91c.28-.37.72-.59,1.18-.59h1.91c.24,0,.43.19.43.43,0,.09-.03.18-.09.26h.04Z"/>
  <path class="cls-1" d="M85.19,38.64c1.31-.3,2.48-1.05,3.28-2.13l1.29-1.7c.55-.73.41-1.76-.32-2.31-.29-.22-.64-.34-1.01-.34h-13.69l-9.31,12.35h14.17c1.79,0,3.48-.84,4.55-2.27l1.31-1.76c.17-.23.27-.51.26-.79,0-.42-.2-.82-.54-1.07v.02ZM78.92,40.24l-.84,1.11c-.28.37-.72.59-1.18.59h-2.76l1.76-2.38h2.65c.24,0,.43.19.43.43h0c0,.09-.03.18-.09.26h.03ZM82.54,35.44l-.71.94c-.28.37-.72.58-1.18.58h-2.76l1.67-2.21h2.65c.24,0,.43.19.43.43h0c0,.09-.03.18-.09.26Z"/>
</svg>