<?xml version="1.0" encoding="UTF-8"?>
<svg id="Layer_1" data-name="Layer 1" xmlns="http://www.w3.org/2000/svg" width="210" height="84" xmlns:xlink="http://www.w3.org/1999/xlink" viewBox="0 0 210 84">
  <defs>
    <style>
      .cls-1 {
        fill: #f8f3b5;
        stroke: #f8f3b5;
      }

      .cls-1, .cls-2, .cls-3, .cls-4, .cls-5, .cls-6, .cls-7, .cls-8, .cls-9, .cls-10, .cls-11 {
        stroke-width: 0px;
      }

      .cls-2 {
        fill: #f7b402;
        stroke: #f7b402;
      }

      .cls-3 {
        fill: url(#linear-gradient-2);
      }

      .cls-3, .cls-4, .cls-9, .cls-10 {
        stroke: #fcd109;
      }

      .cls-4 {
        fill: url(#radial-gradient);
      }

      .cls-12 {
        stroke-width: 0px;
      }

      .cls-12, .cls-13 {
        fill: none;
      }

      .cls-5 {
        fill: #0d69b3;
        stroke: #0d69b3;
      }

      .cls-13 {
        stroke: #d1d1d1;
        stroke-width: .1px;
      }

      .cls-6 {
        fill: #bda727;
        stroke: #bda727;
      }

      .cls-7 {
        fill: #f7e62d;
        stroke: #f7e62d;
      }

      .cls-14 {
        stroke-width: 0px;
      }

      .cls-14, .cls-11 {
        fill: #107bd4;
        stroke: #107bd4;
      }

      .cls-8 {
        fill: #fff;
        stroke: #fff;
      }

      .cls-15 {
        clip-path: url(#clippath);
      }

      .cls-9 {
        fill: url(#linear-gradient-3);
      }

      .cls-10 {
        fill: url(#linear-gradient);
      }
    </style>
    <linearGradient id="linear-gradient" x1="-1478.04" y1="-281.7" x2="-1478.04" y2="-250.92" gradientTransform="translate(1634.61 311.44)" gradientUnits="userSpaceOnUse">
      <stop offset="0" stop-color="#f7e830"/>
      <stop offset="1" stop-color="#fdcb06"/>
    </linearGradient>
    <radialGradient id="radial-gradient" cx="447.27" cy="-314.68" fx="447.27" fy="-314.68" r="25.03" gradientTransform="translate(-290.86 358.45)" gradientUnits="userSpaceOnUse">
      <stop offset=".6" stop-color="#f29405"/>
      <stop offset=".74" stop-color="#f7d01e"/>
      <stop offset="1" stop-color="#fdcb06"/>
    </radialGradient>
    <linearGradient id="linear-gradient-2" x1="-1469.47" y1="-280.59" x2="-1469.46" y2="-279.13" gradientTransform="translate(1634.61 311.44)" gradientUnits="userSpaceOnUse">
      <stop offset="0" stop-color="#fada1c"/>
      <stop offset="1" stop-color="#fdcb06"/>
    </linearGradient>
    <linearGradient id="linear-gradient-3" x1="4045.92" y1="-280.66" x2="4045.93" y2="-279.2" gradientTransform="translate(4193.91 311.44) rotate(-180) scale(1 -1)" xlink:href="#linear-gradient-2"/>
    <clipPath id="clippath">
      <path class="cls-12" d="M165.14,31.57c-.04-.08-.05-.17-.05-.26h-.04c-.06-.23-.26-.45-.51-.46-.19-.02-.42-.01-.53.17-.21.28-.11.64-.12.96,0,.02,0,.06,0,.08,0,.21-.03.42-.06.63-.03.06-.05.13-.05.2-.09.49-.27.98-.51,1.42-.05.06-.08.13-.1.2-.16.27-.35.52-.54.77-.03.03-.06.06-.08.09-.14.17-.28.31-.43.46-.04.02-.06.05-.09.07-.18.17-.38.34-.59.47-.03.02-.05.04-.08.06-1.34.88-2.97,1.25-4.56,1.27-1.35.04-2.7-.25-3.92-.83-.02-.01-.07-.03-.09-.04-.2-.11-.41-.2-.6-.34-.04-.02-.08-.05-.13-.07-.19-.12-.38-.24-.55-.39-.06-.05-.12-.09-.18-.14-.19-.15-.38-.31-.54-.5-.04-.05-.08-.09-.13-.13-.57-.59-1.02-1.31-1.25-2.1-.23-.62-.19-1.3-.22-1.96-.19-.29-.59-.45-.9-.27-.13.09-.15.27-.25.39-.16,1.73.58,3.45,1.75,4.7,0,.04.02.07.06.08.21.19.41.39.62.58.04.04.08.07.13.1.21.17.43.33.65.49.04.03.08.06.13.08.29.17.56.37.87.48.02.02.06.04.08.05.99.48,2.07.8,3.17.91.12,0,.24.01.36.04.52.03,1.05.02,1.57,0,1.62-.14,3.29-.53,4.64-1.49l.02.02s.08-.07.12-.1c.21-.16.42-.32.63-.5.05-.04.1-.08.15-.13.23-.25.5-.48.69-.77l.03.02s.04-.08.06-.1c.18-.24.34-.49.5-.74.01-.02.04-.04.05-.06l-.02-.02s.05-.06.07-.08c.29-.59.54-1.2.63-1.85.04-.02.06-.05.06-.08,0-.21.08-.41.06-.62.05-.26.05-.52.04-.78h0Z"/>
    </clipPath>
  </defs>
  <path class="cls-10" d="M175.22,29.9c-.02-.05-.03-.1-.05-.16-12.4,0-24.8,0-37.2,0-.03.04-.05.07-.06.12,0,9.62,0,19.23,0,28.85.08.51.36.98.74,1.33.02,0,.05.01.07.02.19.2.47.3.73.4.19-.01.38.07.58.05h15.39c.15,0,.3.02.44-.04,0-.02.01-.06.02-.08,0-.03.01-.08.02-.12.33-1.84.65-3.69,1-5.53l.03-.24c-1.42,0-2.85,0-4.28,0-.35-.01-.7,0-1.05-.04-.59-.03-1.19,0-1.78-.06-.73,0-1.46-.07-2.19-.07-.58-.06-1.16-.04-1.74-.06-.38-.05-.76-.03-1.15-.04-.62-.07-1.26-.02-1.88-.09-.66,0-1.32-.05-1.98-.07,0,0,.01-.03.01-.03.22,0,.43-.01.65-.02.49-.06.98-.02,1.47-.09.51,0,1.01-.07,1.52-.07.45-.06.91-.03,1.36-.09.53,0,1.05-.07,1.58-.07.43-.06.87-.03,1.31-.08.51,0,1.01-.07,1.52-.07.5-.06,1.01-.04,1.5-.09-.05-.19-.08-.39-.13-.58-.04-.12-.18-.09-.28-.11-1.14-.16-2.27-.32-3.4-.48.07-.06.17-.03.26-.04.88-.07,1.75-.15,2.63-.21.2-.01.39-.05.59-.05-.09-.27-.14-.57-.26-.82-1.88-.29-3.76-.54-5.63-.85.49-.08.98-.12,1.47-.17l.04-.02c1.56-.16,3.12-.35,4.67-.5,1.97-.01,3.94,0,5.92,0,.06-.01.17.02.18-.07.16-.85.32-1.7.48-2.54.23-1.18.58-2.34,1.13-3.41.86-1.73,2.23-3.19,3.9-4.17,1.56-.91,3.36-1.35,5.15-1.43.58-.05,1.17-.04,1.74.04.38.09.76.19,1.06.45.25.2.39.49.5.79.24.7.38,1.42.49,2.15,0,.29.06.62-.1.89-.15.26-.44.39-.72.47-1.01.26-2.07.02-3.08.26-.83.18-1.61.64-2.14,1.3-.62.77-.95,1.74-1.14,2.7-.14.86-.32,1.72-.46,2.58.99,0,2,0,3,0,.4,0,.81.22.97.6.21.48.16,1.03.09,1.53-.08.57-.22,1.14-.48,1.66-.21.45-.57.85-1.06,1.01-.25.1-.52.08-.79.08-.88,0-1.76.01-2.64,0-.14.64-.24,1.3-.36,1.96-.23,1.27-.46,2.55-.69,3.83,0,.04-.01.13-.01.18.41.02.83,0,1.24.01,3.07,0,6.14,0,9.22,0,.33.01.66-.07.95-.23.17-.06.28-.21.43-.3.15-.08.19-.26.31-.37.14-.24.28-.49.29-.78.02,0,.06,0,.08-.01-.02-9.63,0-19.27-.01-28.9Z"/>
  <path class="cls-1" d="M142.79,23.56c.45-.14.91-.05,1.37-.08,8.55,0,17.1,0,25.65,0,.51-.02.95.27,1.42.41.38.15.77.27,1.15.43.08.03.14.1.19.16,0,.69,0,1.39,0,2.08,0,.18-.03.37.04.55.11.02.17.1.24.17.35.16.64.41.95.62.47.34.97.63,1.43.97.02.14,0,.28-.04.4-.05.15-.02.3-.03.45-12.4,0-24.8,0-37.2,0-.03-.17.02-.35-.05-.51-.01-.14-.06-.31.07-.41.52-.37,1.08-.7,1.59-1.08.32-.2.63-.41.94-.62.06-.1.04-.24.04-.35,0-.76,0-1.52,0-2.28.18-.23.49-.26.73-.37.5-.19,1-.37,1.49-.56M142.82,23.65c-.67.26-1.35.5-2.02.76-.09.02-.14.09-.18.16,0,.04.01.12.01.16,0,.63,0,1.26,0,1.89,0,.16-.02.31.04.46-.07.07-.14.14-.23.19-.76.49-1.49,1.03-2.25,1.51-.13.08-.28.18-.24.36-.03.09.02.17.12.15,1.64-.01,3.28.01,4.93-.02,2.45,0,4.89,0,7.33,0l.04-.02c.11.03.22.02.34.02,4.43,0,8.86,0,13.29,0,1.39,0,2.79,0,4.19,0,2.3,0,4.61.02,6.92.01.07-.02.09-.06.06-.15,0-.08.03-.2-.06-.25-.37-.17-.68-.44-1.03-.65-.13-.1-.29-.16-.38-.3-.36-.2-.7-.46-1.05-.68-.07-.04-.12-.11-.18-.17.03-.11.04-.23.04-.35,0-.66,0-1.33,0-1.99.02-.1.01-.23-.08-.29-.63-.23-1.25-.47-1.87-.7-.19-.09-.41-.15-.62-.18h-26.76c-.11,0-.22.06-.34.09h0Z"/>
  <path class="cls-2" d="M140.63,24.73c.46.19.95.3,1.42.49.25.1.33.37.44.59-.11.11-.24.2-.37.28-.48.32-.97.64-1.45.97-.06-.14-.04-.3-.04-.46,0-.63,0-1.26,0-1.89ZM171.08,25.22c.47-.18.95-.31,1.42-.49,0,.66,0,1.33,0,1.99,0,.12-.01.24-.04.35-.41-.28-.82-.55-1.23-.83-.2-.15-.42-.26-.6-.43.11-.22.19-.49.44-.59h0Z"/>
  <path class="cls-6" d="M148.62,25.44c.58-.14,1.22.38,1.17.98,0,.59-.62,1.07-1.19.94-.23-.08-.45-.2-.59-.4-.18-.28-.23-.65-.08-.95.1-.29.39-.49.69-.56h0ZM163.56,25.77c.24-.27.62-.42.98-.32.27.08.53.25.64.51.23.45.05,1.06-.4,1.29-.4.22-.9.12-1.2-.2-.31-.35-.33-.93-.02-1.28Z"/>
  <path class="cls-7" d="M142.12,26.1c.13-.08.26-.17.37-.28l.04.04c.04.27.01.55.02.82-.02.82.02,1.64-.02,2.46-1.52,0-3.05-.01-4.57,0-.04-.17.1-.28.24-.36.76-.49,1.49-1.02,2.25-1.51.08-.05.16-.12.23-.19.48-.34.97-.65,1.45-.97ZM170.58,25.99c0-.07.02-.13.05-.18.18.18.4.29.6.43.41.28.82.54,1.23.83.06.06.11.13.18.17.36.23.69.48,1.05.68.09.14.26.2.38.3.35.21.66.48,1.03.65.09.05.06.17.06.25-1.52,0-3.04,0-4.57,0-.03-.21-.01-.42-.02-.62,0-.84-.01-1.68,0-2.51h0Z"/>
  <path class="cls-4" d="M175.17,29.12c-1.52,0-3.04,0-4.57,0-.03-.21-.01-.42-.02-.62,0-.84-.01-1.68,0-2.51,0-.07.02-.13.05-.18.11-.22.19-.49.45-.59.47-.18.95-.31,1.42-.49.02-.1.01-.23-.08-.29-.63-.23-1.25-.47-1.87-.7-.19-.09-.41-.15-.62-.18h-26.76c-.12,0-.23.06-.34.09-.67.26-1.35.5-2.02.76-.09.02-.14.09-.18.16,0,.04.01.12.01.16.46.19.95.3,1.42.49.25.1.33.37.44.59l.04.04c.04.27.01.55.02.82-.02.82.02,1.64-.02,2.46-1.52,0-3.05-.01-4.57,0-.03.09.02.17.12.15,1.64-.01,3.28.01,4.93-.02,2.45,0,4.89,0,7.33,0l.04-.02c.11.03.22.02.34.02,4.43,0,8.86,0,13.29,0,1.39,0,2.79,0,4.19,0,2.3,0,4.61.02,6.92.01.07-.02.09-.06.06-.15h0ZM147.94,26c.1-.29.39-.49.69-.56.58-.14,1.22.38,1.17.98,0,.59-.62,1.07-1.19.94-.23-.08-.45-.2-.59-.4-.18-.28-.23-.65-.08-.95h0ZM163.56,25.77c.24-.27.62-.42.98-.32.27.08.53.25.64.51.23.45.05,1.06-.4,1.29-.4.22-.9.12-1.2-.2-.31-.35-.33-.93-.02-1.28Z"/>
  <path class="cls-3" d="M164.9,31.42c.07.02-.38-.44-.29-.46.08.01.4-.24.79-.03.38.2.29.67.25.85-.05.21-.18.34-.29.45-.06.05-.19.12-.27.12.05-.26-.1-.3-.12-.56l-.07-.35Z"/>
  <path class="cls-9" d="M148.16,31.71c-.01.26-.16.3-.12.56-.08,0-.21-.07-.27-.12-.1-.1-.24-.24-.29-.45-.04-.17-.14-.65.25-.85s.7.05.79.03c.09.02-.37.47-.29.46l-.07.35h0Z"/>
  <path class="cls-6" d="M164.21,34.78c.08-.07.13-.07.24-.07-.63,1.36-1.36,2.72-2.46,3.78-.12.11-.24.2-.37.29-.13.09-.25.18-.37.27-.12.08-.24.17-.36.26-.3.16-.56.39-.89.49-.6.29-1.25.48-1.91.62-.26.04-.52.1-.78.11-.32.09-.67.03-1,.05-.18.03-.35-.07-.52-.05-.15-.02-.31-.05-.46-.08-.16-.03-.31-.07-.46-.11-2.4-.75-4.76-2.58-5.44-5.06-.03-.17-.05-.34-.05-.51.07.15.15.29.23.44.98,2.13,2.91,3.8,5.2,4.31.19.08.39.06.56.13.16,0,.32,0,.48.05.54.01,1.08,0,1.62,0,.07,0,.14-.03.21-.05.9-.03,1.78-.28,2.6-.65.16-.07.33-.15.48-.24.14-.07.27-.15.41-.24.13-.08.26-.17.38-.27.97-.77,1.81-1.76,2.38-2.91.11-.21.21-.4.29-.57Z"/>
  <path class="cls-5" d="M163.36,39.43c1.56-.91,3.36-1.35,5.15-1.43.58-.05,1.17-.04,1.74.04.38.09.76.19,1.06.45-.15.01-.3-.06-.45-.08-.43-.08-.87-.05-1.31-.06-1.26,0-2.53.1-3.75.45-.64.19-1.28.42-1.86.75-1.01.56-1.91,1.29-2.64,2.17-1.31,1.5-2.08,3.41-2.45,5.35-.18,1.04-.38,2.08-.54,3.13-.26.03-.53.01-.79.01-1.15,0-2.3-.01-3.46-.02-.25.01-.49-.05-.73-.03-2.09.01-4.19,0-6.28,0l.04-.02c1.56-.16,3.12-.35,4.67-.5,1.97-.01,3.94,0,5.92,0,.06-.01.17.02.18-.07.16-.85.32-1.7.48-2.54.23-1.18.58-2.34,1.13-3.41.86-1.73,2.23-3.19,3.9-4.17Z"/>
  <path class="cls-11" d="M165.8,38.79c1.22-.35,2.49-.45,3.75-.45.43.01.88-.02,1.31.06.15.02.3.09.45.08.25.2.39.49.5.79.24.7.38,1.42.49,2.15,0,.29.06.62-.1.89-.15.26-.44.39-.72.47-1.01.26-2.07.02-3.08.26-.83.18-1.61.64-2.14,1.3-.62.77-.95,1.74-1.14,2.7-.14.86-.32,1.72-.46,2.58-.06.19-.1.4-.14.61.99.02,1.98,0,2.97.01.38-.01.75.01,1.13-.02.21.48.16,1.03.09,1.53-.08.57-.22,1.14-.48,1.66-.21.45-.57.85-1.06,1.01-.25.1-.52.08-.79.08-.88,0-1.76.01-2.64,0-.14.64-.24,1.3-.36,1.96-.23,1.27-.46,2.55-.69,3.83,0,.04-.01.13-.01.18h0c-2.29,0-4.57.01-6.86,0,0-.02.01-.06.02-.08,0-.03.01-.08.02-.12,0,.04.01.12.02.16.14.02.4.09.43-.12.36-1.93.69-3.86,1.05-5.79-.14-.03-.29-.03-.43,0-.02.07-.04.15-.07.22l.03-.24c-1.42,0-2.85,0-4.28,0-.35-.01-.7,0-1.05-.04-.59-.03-1.19,0-1.78-.06-.73,0-1.46-.07-2.19-.07-.58-.06-1.16-.04-1.74-.06-.38-.05-.76-.03-1.15-.04-.62-.07-1.26-.02-1.88-.09-.66,0-1.32-.05-1.98-.07,0,0,.01-.03.01-.03.22,0,.43-.01.65-.02.49-.06.98-.02,1.47-.09.51,0,1.01-.07,1.52-.07.45-.06.91-.03,1.36-.09.53,0,1.05-.07,1.58-.07.43-.06.87-.03,1.31-.08.51,0,1.01-.07,1.52-.07.5-.06,1.01-.04,1.5-.09-.05-.19-.08-.39-.13-.58-.04-.12-.18-.09-.28-.11-1.14-.16-2.27-.32-3.4-.48.07-.06.17-.03.26-.04.88-.07,1.75-.15,2.63-.21.2-.01.39-.05.59-.05-.09-.27-.14-.57-.26-.82-1.88-.29-3.76-.54-5.63-.85.49-.08.98-.12,1.47-.17,2.09,0,4.19.02,6.28,0,.25-.02.49.04.73.03,1.15.01,2.3.02,3.46.02.26,0,.53.02.79-.01.16-1.05.37-2.08.54-3.13.37-1.94,1.14-3.85,2.45-5.35.73-.88,1.64-1.61,2.64-2.17.58-.33,1.22-.56,1.86-.75Z"/>
  <path class="cls-5" d="M164.68,49.62c.99,0,2,0,3,0,.4,0,.81.22.97.6-.38.03-.75,0-1.13.02-.99-.01-1.98,0-2.97-.01.04-.2.07-.41.14-.61h0ZM156.95,54.53c.15-.03.29-.03.43,0-.37,1.93-.7,3.86-1.05,5.79-.04.2-.29.13-.43.12,0-.04-.01-.12-.02-.16.33-1.84.65-3.69,1-5.53.03-.07.05-.15.07-.22h0Z"/>
  <path class="cls-8" d="M165.14,31.57c-.04-.08-.05-.17-.05-.26h-.04c-.06-.23-.26-.45-.51-.46-.19-.02-.42-.01-.53.17-.21.28-.11.64-.12.96,0,.02,0,.06,0,.08,0,.21-.03.42-.06.63-.03.06-.05.13-.05.2-.09.49-.27.98-.51,1.42-.05.06-.08.13-.1.2-.16.27-.35.52-.54.77-.03.03-.06.06-.08.09-.14.17-.28.31-.43.46-.04.02-.06.05-.09.07-.18.17-.38.34-.59.47-.03.02-.05.04-.08.06-1.34.88-2.97,1.25-4.56,1.27-1.35.04-2.7-.25-3.92-.83-.02-.01-.07-.03-.09-.04-.2-.11-.41-.2-.6-.34-.04-.02-.08-.05-.13-.07-.19-.12-.38-.24-.55-.39-.06-.05-.12-.09-.18-.14-.19-.15-.38-.31-.54-.5-.04-.05-.08-.09-.13-.13-.57-.59-1.02-1.31-1.25-2.1-.23-.62-.19-1.3-.22-1.96-.19-.29-.59-.45-.9-.27-.13.09-.15.27-.25.39-.16,1.73.58,3.45,1.75,4.7,0,.04.02.07.06.08.21.19.41.39.62.58.04.04.08.07.13.1.21.17.43.33.65.49.04.03.08.06.13.08.29.17.56.37.87.48.02.02.06.04.08.05.99.48,2.07.8,3.17.91.12,0,.24.01.36.04.52.03,1.05.02,1.57,0,1.62-.14,3.29-.53,4.64-1.49l.02.02s.08-.07.12-.1c.21-.16.42-.32.63-.5.05-.04.1-.08.15-.13.23-.25.5-.48.69-.77l.03.02s.04-.08.06-.1c.18-.24.34-.49.5-.74.01-.02.04-.04.05-.06l-.02-.02s.05-.06.07-.08c.29-.59.54-1.2.63-1.85.04-.02.06-.05.06-.08,0-.21.08-.41.06-.62.05-.26.05-.52.04-.78h0Z"/>
  <g class="cls-15">
    <path class="cls-13" d="M147.62,31.39c.42.13,1.4-.2,1.68.1M147.87,32.69c.41-.14,1.28-.48,1.64-.28M148.29,33.98c.2.06.58-.28.78-.38.29-.15.58-.27.9-.32M148.91,35.34c.2-.29.45-.53.74-.73.29-.2,1.08-.74,1.43-.56M149.51,36.32c.23-.18.32-.51.57-.7.29-.23.74-.27,1.04-.42M150.49,37.04c.07-.51.58-1.12,1.07-1.07M151.25,37.75c.26-.03.48-.61.65-.8.26-.29.53-.39.88-.49M152.75,38.38c-.02-.37.36-1.42.8-1.36M153.87,38.73c-.02-.43.21-1.74.73-1.78M155.02,39.42c-.1-.61-.09-1.48.38-1.92M156.45,39.56c-.05-.5-.55-1.52,0-1.92M157.99,39.21c-.24-.28-.38-1.37-.28-1.68M159.46,38.97c-.18-.34-.41-.65-.48-1.04-.04-.23.03-.56,0-.74M160.68,38.45c-.4-.26-.51-1.22-.38-1.64M161.86,37.92c-.28-.61-.59-1.08-.59-1.78M163.02,36.81c-.44-.3-1.01-.84-.94-1.43M164.24,35.86c-.67-.15-1.48-.75-1.89-1.29M164.8,34.71c-.49-.1-2.09-.73-1.99-1.36M165.32,33.49c-.68-.25-1.66-.47-2.2-.94M165.67,32.37c-.43.04-1.04-.17-1.47-.24-.48-.08-.93-.24-1.39-.35M165.25,31.29c-.82.05-1.59-.23-2.34-.49"/>
  </g>
  <path class="cls-14" d="M60.16,33.81c.76-.11,1.63-.19,2.28.29.4.3.54.84.52,1.33.03.8-.34,1.66-1.06,2.08-.63.34-1.39.37-2.09.3-.47-.06-.94-.31-1.19-.74-.54-1.25.13-3.01,1.55-3.25h0ZM37.46,34.71c.04-.43.43-.82.87-.8,3.31,0,6.6.01,9.89,0,.36-.03.74.13.92.44.24.43.03.9,0,1.35-.1.6-.07,1.4-.77,1.63-2.41.07-4.81,0-7.22.03-.23,1.52-.44,3.02-.67,4.52,0,.06.01.19.01.24,1.76-.01,3.52,0,5.28-.01.49-.03,1,.39.96.9-.04.53-.16,1.05-.23,1.57-.06.36-.34.69-.72.76-1.96.04-3.95-.04-5.91.04-.32,2.16-.69,4.32-1.02,6.49-.04.43-.39.8-.82.82-.82.01-1.63.01-2.45,0-.53.01-.96-.57-.82-1.07.87-5.64,1.78-11.27,2.68-16.91h0ZM52,33.94c.74-.06,1.5-.01,2.25-.03.46-.03.92.33.96.8,0,.37-.1.74-.14,1.12-.6,3.84-1.22,7.67-1.82,11.51-.09.62-.24,1.27-.06,1.9.21.63,1.17.36,1.4,1.02.14.53-.01,1.09-.06,1.63-.04.72-.86.87-1.42,1.03-1.22.23-2.69.06-3.56-.95-.63-.73-.67-1.76-.54-2.68.76-4.87,1.52-9.74,2.29-14.62.04-.36.33-.69.7-.74h0ZM80.42,34.71c.04-.43.43-.8.86-.8h2.18c.54-.01.99.57.86,1.09-.5,3.18-1.02,6.36-1.52,9.53.76-.11,1.62-.26,2.15-.87.89-1,1.62-2.16,2.16-3.38.19-.47.29-1.16.9-1.25.82-.03,1.65-.01,2.46,0,.56-.01.97.62.79,1.13-.21.76-.57,1.46-.94,2.13-.83,1.35-1.75,2.68-2.95,3.74.53,1.59,1.2,3.14,1.79,4.7.17.52.59,1.12.2,1.62-.44.6-1.27.3-1.89.37-.64-.07-1.57.26-1.93-.47-.67-1.56-1.23-3.16-1.92-4.72-.4.01-.82.03-1.22-.01-.03.06-.09.17-.11.23-.21,1.43-.44,2.86-.67,4.29-.09.34-.36.64-.73.67-.76.03-1.53.01-2.3.01-.33,0-.63-.21-.77-.5-.14-.29-.06-.62-.01-.93.89-5.53,1.76-11.05,2.63-16.58h0ZM120.2,36.27c.1-.4.49-.67.89-.66.57.01,1.16-.01,1.75.01.47.01.84.49.79.94-.09.82-.29,1.63-.34,2.45.56,0,1.13-.01,1.69,0,.5,0,.92.52.83,1-.07.44-.17.87-.24,1.32-.07.37-.39.67-.74.73-.69.04-1.36-.03-2.03.04-.29,1.92-.6,3.84-.9,5.76-.04.44-.07.94.19,1.33.39.47,1.06.3,1.6.36.43.13.7.6.63,1.03-.07.49-.09.97-.2,1.45-.17.53-.79.63-1.26.76-1.3.34-2.81.34-3.97-.42-1.07-.73-1.25-2.15-1.13-3.35.3-2.32.77-4.62,1.03-6.96-.4.01-.89.07-1.19-.29-.34-.36-.17-.89-.11-1.33.09-.47.07-1.09.59-1.35.42-.16.89-.04,1.33-.1.27-.92.53-1.83.82-2.73h0ZM112.12,40.91c.9-.9,1.99-1.65,3.24-2.02.54-.24,1.25.21,1.23.82-.1.79-.29,1.56-.42,2.33-.06.39-.39.72-.77.76-1.4.24-2.62,1.09-3.59,2.09-.24.3-.6.59-.64,1-.3,2-.62,4.01-.93,6.01-.04.43-.42.84-.86.82h-2.18c-.5.03-.94-.47-.89-.97.63-3.97,1.26-7.92,1.88-11.88.03-.4.32-.79.73-.83.53-.03,1.06-.01,1.6-.01.43,0,.83.39.83.83,0,.62-.06,1.25-.07,1.88.34-.21.56-.56.84-.82h0ZM58.6,39.09c.77-.16,1.57-.03,2.35-.07.44-.06.92.23.99.67.06.4-.06.79-.1,1.17-.59,3.68-1.17,7.36-1.75,11.04-.04.42-.39.83-.83.82-.77,0-1.55.01-2.33-.01-.49-.06-.84-.62-.72-1.09.62-3.82,1.2-7.63,1.82-11.45.03-.42.14-.9.57-1.07ZM104.93,39.28c-2.13-.4-4.31-.69-6.47-.47-1.93.24-3.88,1.12-5.07,2.71-1.65,2.09-2.2,4.9-1.83,7.5.2,1.25.74,2.51,1.76,3.28.94.73,2.22.83,3.36.64,1.6-.32,2.96-1.35,4.08-2.49.06.49-.06.97-.03,1.45.03.44.43.86.87.83h1.46c.43,0,.79-.4.82-.82.62-3.88,1.23-7.75,1.83-11.61.09-.49-.3-.96-.79-1.02h0ZM100.91,46.02c-.57,1.07-1.37,2.05-2.28,2.88-.52.43-1.17.87-1.88.73-.69-.14-1.02-.86-1.17-1.47-.36-1.6-.03-3.35.87-4.74.4-.64,1.05-1.13,1.79-1.33,1.05-.26,2.15-.13,3.16.16l.06.06c-.13,1.25-.37,2.48-.56,3.72h0ZM76.83,43.87c-.01-1.43-.4-2.93-1.4-4.01-.69-.76-1.72-1.15-2.72-1.13-1.66-.06-3.22.76-4.44,1.85-.27.21-.46.53-.76.7,0-.47.04-.94.03-1.43.01-.44-.4-.83-.83-.83h-1.46c-.46,0-.83.4-.86.84-.9,5.73-1.82,11.45-2.72,17.18-.13.53.33,1.07.87,1.06.8-.01,1.62.06,2.41-.06.63-.17.62-.9.72-1.43.23-1.26.39-2.52.53-3.79,2.82.54,6.1.17,8.2-1.96,1.72-1.88,2.52-4.47,2.43-6.99h0ZM72.82,45.32c-.09,1.32-.56,2.65-1.47,3.61-1.19,1.13-2.99.97-4.45.59-.03-.04-.07-.13-.09-.17.23-1.25.34-2.51.63-3.74.8-1.32,1.78-2.65,3.16-3.38.52-.24,1.22-.19,1.59.29.63.79.69,1.85.63,2.81h0Z"/>
</svg>