<?xml version="1.0" encoding="UTF-8"?>
<svg id="Layer_1" data-name="Layer 1" xmlns="http://www.w3.org/2000/svg" width="210" height="84" viewBox="0 0 210 84">
  <defs>
    <style>
      .cls-1 {
        fill: #ae282e;
      }

      .cls-1, .cls-2, .cls-3, .cls-4 {
        stroke-width: 0px;
      }

      .cls-2 {
        fill: #fff;
      }

      .cls-3 {
        fill: #f06321;
      }

      .cls-4 {
        fill: #004a7f;
      }
    </style>
  </defs>
  <g id="layer1">
    <g id="g651">
      <path id="path150" class="cls-4" d="M55.91,54.11h5.36l4.2-15.67h-5.31l-4.26,15.67Z"/>
      <path id="path152" class="cls-4" d="M83.4,54.11h5.36l4.2-15.67h-5.36l-4.2,15.67Z"/>
      <path id="path154" class="cls-4" d="M110.95,54.11h5.31l4.15-15.67h-5.36l-4.1,15.67Z"/>
      <path id="path156" class="cls-4" d="M78.41,43.81h5.36c.74-3.52-1.52-5.31-6.78-5.31-6.1,0-10.2,3-11.62,8.1-1.21,4.73,1.26,7.57,6.99,7.57s9.2-1.79,10.62-5.84h-5.36c-.79,1.79-2.15,2.68-4.05,2.68-2.58,0-3.63-1.58-2.84-4.57.84-3.1,2.84-4.84,5.42-4.84,1.68,0,2.42.74,2.26,2.21"/>
      <path id="path158" class="cls-4" d="M105.96,43.81h5.36c.74-3.52-1.58-5.31-6.84-5.31-6.05,0-10.2,3-11.56,8.1-1.26,4.73,1.21,7.57,6.94,7.57s9.15-1.79,10.62-5.84h-5.36c-.74,1.79-2.16,2.68-4.05,2.68-2.58,0-3.63-1.58-2.79-4.57.79-3.1,2.79-4.84,5.36-4.84,1.68,0,2.47.74,2.32,2.21"/>
      <path id="path160" class="cls-3" d="M35.24,29.77c7.15-7.1,15.82-8.94,19.3-4.1,3.47,4.84.42,14.62-6.73,21.71-7.15,7.15-15.82,8.99-19.35,4.1-3.42-4.89-.37-14.62,6.78-21.71"/>
      <path id="path162" class="cls-1" d="M39.98,25.99c-.79.58-1.58,1.26-2.36,2-6.26,6.2-8.89,14.72-5.78,18.98,3.21,4.26,10.88,2.68,17.3-3.58,3.47-3.36,5.78-7.26,6.73-10.88.26-2.68-.11-5.05-1.31-6.83-2.73-3.78-8.62-3.47-14.56.32"/>
      <path id="path164" class="cls-2" d="M49.02,26.78v.16c-.05.89-.58,2-1.52,2.94-1.42,1.37-3.31,1.89-4.1,1.11-.89-.84-.37-2.68,1.05-4.15,1.47-1.42,3.36-1.89,4.15-1.05.26.26.42.58.42,1M43.55,50.91c-3.37,2.52-6.83,3.79-10.2,3.26,1.42.05,2.58-1.53,3.52-3.63.95-2.15,1.47-4.15,1.94-6.05.68-3,.74-5.1.37-5.57-.58-.74-1.84-.58-3.31.26-.74.42-1.68.16-.58-1.21,1.16-1.37,5.62-4.63,7.2-5.15,1.79-.47,3.79.21,3.1,2.15-.48,1.42-6.68,17.61-2.05,15.93"/>
      <path id="path166" class="cls-4" d="M128.46,51.64l1.21-4.52h2.94v-2.42h-2.26l1.05-3.84h1.21v-2.37h-4l-4.15,15.67h8.15v-2.53h-4.15ZM132.61,47.12h.58c2.68,0,3.94.47,3.42,2.31-.42,1.63-1.73,2.21-4,2.21v2.53c2.21,0,3.84-.21,5.47-1.32,1.1-.74,1.89-1.84,2.21-3.1.58-2.15-.37-3.63-2.84-3.94,2.31-.42,3.79-1.63,4.26-3.52.42-1.42.05-2.47-.95-3.15-.84-.58-2.26-.63-4.15-.63h-4v2.37h2.05c2.52,0,3.68.32,3.31,1.89-.47,1.52-1.84,1.95-4.41,1.95h-.95v2.42Z"/>
      <path id="path168" class="cls-4" d="M147.33,43.18v1.94c-.42.21-.79.58-.95,1.11h-3.15c.52-1.52,1.94-2.58,4.1-3.05M147.33,52.38c-.37.11-.79.16-1.21.16-1.42,0-2.05-.58-1.73-1.63.32-1.21,1.26-1.63,2.94-1.79v-1.84c-3.63.26-5.63,1.21-6.26,3.57-.58,2.15.79,3.58,3.63,3.58.95,0,1.84-.16,2.63-.47v-1.58ZM150.38,49.12l-.05.16c-.42,1.63-1.53,2.74-3,3.1v1.58c.79-.32,1.47-.74,2.1-1.31l-.26,1.52h3.16c.16-.74.32-1.58.53-2.42l1.21-4.41c.11-.37.16-.74.16-1.1v-.53c-.11-1.79-1.63-2.74-4.47-2.74-.9,0-1.68.11-2.42.21v1.94c.47-.26,1.05-.37,1.79-.37,1.63,0,2.26.73,1.78,2.31l-.05.16h-1.68c-.63,0-1.26.05-1.84.05v1.84h3.05Z"/>
      <path id="path170" class="cls-4" d="M155.16,54.17h3.21l1.52-5.63c.53-2,2.36-3.42,4.31-3.42s2.58,1.11,1.95,3.31l-1.53,5.73h3.21l1.79-6.68c.74-2.84-.68-4.52-3.84-4.52-2.05,0-3.68.74-5.1,2.21l.37-1.94h-3.21c-.32,1.73-.53,2.79-.63,3.21l-2.05,7.73Z"/>
      <path id="path172" class="cls-4" d="M170.67,54.17h3.16l1.58-5.89,4.26,5.89h4.36l-4.84-6.26,6.52-4.68h-4.05l-6.05,4.36,2.42-9.09h-3.15l-4.21,15.67Z"/>
    </g>
  </g>
</svg>