<?xml version="1.0" encoding="UTF-8"?>
<svg id="Layer_1" data-name="Layer 1" xmlns="http://www.w3.org/2000/svg" width="210" height="84" xmlns:xlink="http://www.w3.org/1999/xlink" viewBox="0 0 210 84">
  <defs>
    <style>
      .cls-1 {
        fill: #fff;
      }

      .cls-1, .cls-2, .cls-3, .cls-4, .cls-5 {
        stroke-width: 0px;
      }

      .cls-1, .cls-3, .cls-4, .cls-5 {
        fill-rule: evenodd;
      }

      .cls-6 {
        clip-path: url(#clippath-2);
      }

      .cls-2 {
        fill: none;
      }

      .cls-7 {
        clip-path: url(#clippath-1);
      }

      .cls-3 {
        fill: #1a4680;
      }

      .cls-4 {
        fill: #f47216;
      }

      .cls-5 {
        fill: #ad252b;
      }

      .cls-8 {
        clip-path: url(#clippath);
      }
    </style>
    <clipPath id="clippath">
      <rect class="cls-2" x="31.14" y="23.09" width="147.71" height="38.24"/>
    </clipPath>
    <clipPath id="clippath-1">
      <rect class="cls-2" x="32.67" y="25.58" width="144.61" height="33.61"/>
    </clipPath>
    <clipPath id="clippath-2">
      <rect class="cls-2" x="31.14" y="23.09" width="147.71" height="38.24"/>
    </clipPath>
  </defs>
  <g id="g10">
    <g id="g12">
      <g class="cls-8">
        <g id="g14">
          <g id="g20">
            <path id="path22" class="cls-3" d="M114.94,45.28l-4.11,2.23-2.73-1.65s.56-.35,1.2-.77c.64-.45.37-.53.03-.93-.67-.48-3.57-2.38-3.57-2.38l.94-.47-.86-2.05,2.04-.05.05-1.2s3.17,2.08,3.66,2.25c.52.18.91-.1.98-.83v-4.55l1.28.6.96-1.72.05-.08c-1.35-1.05-3.05-1.65-4.87-1.65-4.48,0-8.12,3.68-8.12,8.23s3.64,8.25,8.12,8.25c1.84,0,3.57-.63,4.92-1.7l.03-1.53Z"/>
          </g>
          <g id="g24">
            <path id="path26" class="cls-3" d="M114.87,36.28h-.49v7.93l-6.08-3.65-.25.43,6.4,3.85.42-.37v-8.18Z"/>
          </g>
          <g id="g28">
            <path id="path30" class="cls-3" d="M53.46,48.43h3.84l3.03-11.46h-3.84l-3.03,11.46Z"/>
          </g>
          <g id="g32">
            <path id="path34" class="cls-3" d="M73.26,48.43h3.84l3.03-11.46h-3.84l-3.03,11.46Z"/>
          </g>
          <g id="g36">
            <path id="path38" class="cls-3" d="M93.04,48.43h3.86l3-11.46h-3.84l-3.03,11.46Z"/>
          </g>
          <g id="g40">
            <path id="path42" class="cls-3" d="M69.65,40.91h3.89c.49-2.58-1.16-3.9-4.94-3.9-4.35,0-7.31,2.18-8.32,5.93-.91,3.45.89,5.53,4.99,5.53s6.64-1.33,7.65-4.25h-3.86c-.54,1.3-1.55,1.98-2.93,1.98-1.84,0-2.58-1.2-2.02-3.38.59-2.28,2.02-3.53,3.89-3.53,1.21,0,1.77.52,1.65,1.62"/>
          </g>
          <g id="g44">
            <path id="path46" class="cls-3" d="M89.48,40.91h3.84c.52-2.58-1.13-3.9-4.9-3.9-4.38,0-7.36,2.18-8.34,5.93-.91,3.45.89,5.53,4.99,5.53s6.62-1.33,7.68-4.25h-3.89c-.54,1.3-1.55,1.98-2.93,1.98-1.87,0-2.58-1.2-1.99-3.38.59-2.28,1.99-3.53,3.86-3.53,1.18,0,1.75.52,1.67,1.62"/>
          </g>
          <g id="g48">
            <path id="path50" class="cls-3" d="M117.37,37.33h.93l.25.13.27-.13h1.06v10.03s3.4,0,3.86-.12c-.2.5-.15,1,.05,1.25h-6.4l-.03-11.15Z"/>
          </g>
          <g id="g52">
            <path id="path54" class="cls-3" d="M128.47,48.06c-.44-.03-2.07-.43-2.14-3.28.1-2.58,1.43-3.63,2.14-3.65.47-.02,2.04.4,2.04,3.53,0,2.53-1.35,3.48-2.04,3.4M128.62,40.46c-1.18,0-4.18.4-4.18,4.18,0,4.43,4.03,3.95,4.03,3.95,1.38,0,3.94-.38,4.08-3.88,0-4.43-3.94-4.25-3.94-4.25"/>
          </g>
          <g id="g56">
            <path id="path58" class="cls-3" d="M150.78,47.88c-.42-.05-1.89-.4-1.94-3.05.07-2.38,1.3-3.33,1.94-3.35.44-.03,1.89.37,1.89,3.25,0,2.3-1.25,3.2-1.89,3.15M151.72,40.73c-1.6-.15-2.53.65-2.53.65v-5.18h-.81l-.25.1-.27-.13-.93.02.02,12.18h.96s.42-.35.74-.7c.81.9,2.02.83,2.83.83s3.35-.8,3.35-3.95-2.09-3.65-3.1-3.83"/>
          </g>
          <g id="g60">
            <path id="path62" class="cls-3" d="M173.71,47.76c-.57.05-1.7-.83-1.7-3.15,0-2.88,1.33-3.25,1.7-3.25.59.03,1.7,1,1.77,3.38-.05,2.63-1.4,3-1.77,3.03M176.44,36.18l-.25.12-.25-.1h-.71v5.18s-1.06-.88-2.63-.73c-1.03.15-3.25,1-3.25,3.93,0,3.15,1.7,4.18,3.44,4.25.81.03,1.62.08,2.44-.82,0,0,.02.5.02.68h2.02v-12.5h-.84Z"/>
          </g>
          <g id="g64">
            <path id="path66" class="cls-3" d="M133.86,40.61h.71l.22.18.2-.18h.64v.53c.54-.48,3.08-1.5,4.53.43,0,0,.59-1.08,2.78-1.08,1.38.1,2.53,1.1,2.53,2.48v5.6s-1.26-.27-1.94,0v-4.93c0-1.55-.71-2.15-1.4-2.15-.66.05-1.55.75-1.55,2.25v4.83s-1.26-.25-1.82,0v-4.85s.17-2.18-1.38-2.18c-1.4,0-1.55,1.55-1.55,2.23v4.8s-1.35-.18-1.94.03c0-.25-.03-7.98-.03-7.98"/>
          </g>
          <g id="g68">
            <path id="path70" class="cls-3" d="M166.04,44.73v3.83s-1.48-.18-2.07.03v-7.98h.91l.22.18.22-.18h.71v.68c.34.1.47-.98,2.95-.68,0,.3-.12,2.08-.12,2.08,0,0-.57.18-1.06-.1-.39-.23-1.75.18-1.77,2.15"/>
          </g>
        </g>
      </g>
    </g>
    <g id="g72">
      <g class="cls-7">
        <g id="g74">
          <g id="g80">
            <path id="path82" class="cls-3" d="M159.91,46.96c-.2.5-1.08,1.2-1.7.98-.37-.13-1.01-.45-.91-1.73.03-.5.49-1,2.61-1.48v2.23ZM161.93,47.56v-4.4c0-2.4-1.38-2.43-2.93-2.6-2.12,0-2.83.8-3.07,1.05v.85h.89c.25-.4.49-.72,1.03-1,.81-.35,1.65.25,1.97.85.27.47.34,1.7-.52,1.85-2.53.3-3.49.95-3.79,1.6-.98,2.78,1.62,3.03,1.62,3.03.76.2,2.58-.05,2.98-.65.37.85,2.63.58,2.71.23v-.4c-.74.05-.79-.03-.89-.4"/>
          </g>
          <g id="g84">
            <path id="path86" class="cls-1" d="M38.56,30.55c5.16-5.18,11.42-6.55,13.89-2.97,2.47,3.54.3,10.7-4.86,15.88-.98,1-2.03,1.88-3.04,2.58-2.51,1.73-5.47,2.53-7.27,2.36-1.46-.12-2.71-.79-3.55-1.94-2.53-3.58-.33-10.67,4.83-15.91"/>
          </g>
          <g id="g88">
            <path id="path90" class="cls-4" d="M38.56,30.55c5.16-5.18,11.42-6.55,13.89-2.97,2.47,3.54.3,10.7-4.86,15.88-.98,1-2.03,1.88-3.04,2.58-3.31,1.21,1.1-10.67,1.49-11.67.45-1.42-.95-1.94-2.21-1.58-1.19.39-4.41,2.79-5.25,3.76-.81,1-.12,1.21.42.91,1.04-.64,2-.76,2.44-.21.24.33.15,1.91-.3,4.09-.36,1.36-.75,2.85-1.4,4.42-.69,1.49-1.49,2.61-2.47,2.64-1.46-.12-2.71-.79-3.55-1.94-2.53-3.58-.33-10.67,4.83-15.91M48.18,27.61c-.6-.58-1.94-.27-2.98.79-1.04,1.09-1.37,2.42-.78,3.03.57.61,1.94.24,2.95-.82,1.01-1.06,1.4-2.39.81-3"/>
          </g>
          <g id="g92">
            <path id="path94" class="cls-5" d="M41.98,27.79c4.2-2.76,8.5-3,10.46-.21.86,1.3,1.13,3,.95,4.97-.72,2.7-2.38,5.51-4.83,8-1.67,1.67-3.49,2.85-5.22,3.58.21-3.15,2.41-9.03,2.68-9.76.45-1.42-.95-1.94-2.2-1.58-1.19.39-4.41,2.79-5.25,3.76-.81,1-.12,1.21.42.91,1.04-.64,2-.76,2.44-.21.24.33.15,1.91-.3,4.09-.27,1.09-.6,2.27-1.07,3.55-1.67.06-3.07-.55-3.99-1.76-2.21-3.09-.33-9.36,4.17-13.85.6-.58,1.19-1.09,1.73-1.49M48.18,27.61c-.6-.58-1.94-.27-2.98.79-1.04,1.09-1.37,2.42-.78,3.03.57.61,1.94.24,2.95-.82,1.01-1.06,1.4-2.39.8-3"/>
          </g>
        </g>
      </g>
    </g>
    <g id="g96">
      <g class="cls-6">
        <g id="g98">
          <g id="g104">
            <path id="path106" class="cls-3" d="M70.52,58.86v-1.93h-1.55v.66h.75v.92c-.23.06-.45.06-.64.06-.8,0-1.25-.5-1.25-1.47s.45-1.6,1.11-1.6c.51,0,.81.3.81.79h.76v-.07c0-.74-.55-1.28-1.51-1.28-1.28,0-2.02.83-2.02,2.19s.74,2.05,2.05,2.05c.59,0,1.06-.1,1.48-.33"/>
          </g>
          <g id="g108">
            <path id="path110" class="cls-3" d="M73.74,55.01v4.11h2.59v-.67h-1.76v-1.12h1.6v-.64h-1.6v-.97h1.74v-.7h-2.56Z"/>
          </g>
          <g id="g112">
            <path id="path114" class="cls-3" d="M79.41,55.01v4.11h.74v-3.39l1.51,3.39h1.12v-4.11h-.74v3.34l-1.44-3.34h-1.19Z"/>
          </g>
          <g id="g116">
            <path id="path118" class="cls-3" d="M86.03,55.01v4.11h2.62v-.67h-1.8v-1.12h1.6v-.64h-1.6v-.97h1.73v-.7h-2.56Z"/>
          </g>
          <g id="g120">
            <path id="path122" class="cls-3" d="M91.7,59.12v-4.11h1.62c.89,0,1.3.33,1.3,1.04,0,.6-.22.87-.77,1.01.45.07.61.26.67.79l.06.59c.04.32.1.53.2.67h-.89c-.07-.14-.09-.3-.09-.48l-.06-.63c-.04-.48-.07-.51-.49-.51h-.74v1.62h-.8ZM92.5,56.8h.51c.55,0,.78-.09.78-.54,0-.53-.23-.58-.78-.58h-.51s0,1.13,0,1.13Z"/>
          </g>
          <g id="g124">
            <path id="path126" class="cls-3" d="M97.38,59.12l1.38-4.11h.99l1.31,4.11h-.83l-.25-.88h-1.53l-.3.88h-.76ZM98.66,57.59h1.09l-.51-1.76-.58,1.76Z"/>
          </g>
          <g id="g128">
            <path id="path130" class="cls-3" d="M103.95,55.01v4.11h2.57v-.67h-1.74v-3.44h-.83Z"/>
          </g>
          <path id="path132" class="cls-3" d="M112.93,59.12h.8v-4.11h-.8v4.11Z"/>
          <g id="g134">
            <path id="path136" class="cls-3" d="M116.99,55.01v4.11h.73v-3.39l1.47,3.39h1.16v-4.11h-.73v3.34l-1.44-3.34h-1.18Z"/>
          </g>
          <g id="g138">
            <path id="path140" class="cls-3" d="M124.23,57.79h-.81v.07c0,.91.52,1.33,1.51,1.33s1.57-.45,1.57-1.21c0-.71-.4-.94-1.19-1.19-.64-.23-1-.36-1-.72,0-.32.23-.55.66-.55.37,0,.6.23.62.69h.74v-.03c0-.75-.48-1.22-1.34-1.22-.93,0-1.48.5-1.48,1.22,0,.32.13.58.36.76.25.21.5.27.8.37.64.27.99.37.99.74,0,.33-.25.6-.66.6-.52,0-.77-.3-.77-.86"/>
          </g>
          <g id="g142">
            <path id="path144" class="cls-3" d="M130.39,55.01h-.85v2.55c0,1.12.55,1.62,1.66,1.62s1.65-.51,1.65-1.62v-2.55h-.77v2.58c0,.62-.27.95-.83.95s-.86-.3-.86-.92v-2.61Z"/>
          </g>
          <g id="g146">
            <path id="path148" class="cls-3" d="M136.09,59.12v-4.11h1.58c.89,0,1.31.33,1.31,1.04,0,.6-.23.87-.75,1.01.45.07.58.26.64.79l.06.59c.04.32.1.53.23.67h-.9c-.1-.14-.1-.3-.14-.48l-.03-.63c-.06-.48-.09-.51-.5-.51h-.72v1.62h-.8ZM136.89,56.8h.49c.54,0,.8-.09.8-.54,0-.53-.26-.58-.8-.58h-.49s0,1.13,0,1.13Z"/>
          </g>
          <g id="g150">
            <path id="path152" class="cls-3" d="M141.73,59.12l1.38-4.11h1.01l1.35,4.11h-.87l-.26-.88h-1.51l-.32.88h-.77ZM143.03,57.59h1.12l-.55-1.76-.57,1.76Z"/>
          </g>
          <g id="g154">
            <path id="path156" class="cls-3" d="M148.32,55.01v4.11h.73v-3.39l1.52,3.39h1.13v-4.11h-.74v3.34l-1.45-3.34h-1.19Z"/>
          </g>
          <g id="g158">
            <path id="path160" class="cls-3" d="M156.52,59.19c.96,0,1.52-.45,1.58-1.28h-.78c-.03.44-.32.7-.74.7-.67,0-.99-.5-.99-1.55s.35-1.49.95-1.49c.45,0,.74.25.78.65h.74c-.03-.78-.59-1.28-1.55-1.28-1.12,0-1.76.79-1.76,2.16s.6,2.08,1.76,2.08"/>
          </g>
          <g id="g162">
            <path id="path164" class="cls-3" d="M161.15,55.01v4.11h2.59v-.67h-1.78v-1.12h1.61v-.64h-1.61v-.97h1.71v-.7h-2.52Z"/>
          </g>
          <path id="path166" class="cls-3" d="M53.46,57.24h11.76v-.35h-11.76v.35Z"/>
          <path id="path168" class="cls-3" d="M165.53,57.24h11.76v-.35h-11.76v.35Z"/>
        </g>
      </g>
    </g>
  </g>
</svg>