<?xml version="1.0" encoding="UTF-8"?>
<svg id="Layer_1" data-name="Layer 1" xmlns="http://www.w3.org/2000/svg" width="210" height="84" viewBox="0 0 210 84">
  <defs>
    <style>
      .cls-1 {
        fill: #3781c2;
        fill-rule: evenodd;
        stroke-width: 0px;
      }
    </style>
  </defs>
  <g id="g11">
    <g id="g2552">
      <path id="path161" class="cls-1" d="M47.12,23.97v-.06s0-4.45,0-4.45h4.45v32.78s0,4.41,0,4.41h-4.45v-4.51s0-28.16,0-28.16"/>
      <path id="path163" class="cls-1" d="M92.32,43.11c.11,6.76,4.3,12.16,9.34,12.07,5.04-.09,9.04-5.64,8.93-12.4-.12-6.76-4.3-12.16-9.34-12.07-5.04.09-9.04,5.64-8.92,12.4ZM129.13,34.94c.12.26-.16-.38-.16-.38l.16.38ZM132.16,62.91c.2-.35.49-.88.83-1.55l-.83,1.55ZM132.42,32.6c.05.15.12.31.19.47l1.5,3.69-1.68-4.16ZM113.8,51.16c2.75,2.51,5.22,3.81,8.39,3.81,3.24.02,6.12-1.57,6.12-4.64,0-2.56-2.26-4.06-6.28-5.77-3.41-1.49-5.96-2.53-7.28-4.68.16.93.25,1.9.25,2.89,0,8.3-5.98,15.03-13.37,15.03s-13.37-6.73-13.37-15.03c0-5,2.18-9.44,5.52-12.17h-9.04v21.62s0,4.42,0,4.42h-4.02v-4.28c0-.08,0-.15,0-.23v-21.53h-3.54v-2.71h3.59c.46-5.47,3.83-8.56,8.49-8.56,3.02,0,4.68.32,5.64.76v3.71c-.02.28-.02.45-.02.45-.04,0-.14,0-.14,0-1.45-1.35-2.89-2.35-6.24-2.35-2.67,0-4.44,2.18-3.82,6h15.04c.62-.1,1.26-.15,1.9-.15,5.35,0,9.97,3.54,12.11,8.66-.02-.28-.03-.58-.03-.89,0-5.34,5.13-7.61,10.47-7.59.2,0,.4,0,.6,0,1.88-.03,4.55.59,6.18,1.02l3.17,7.82,4.52,11.1.53,1.78.59-1.78,5.72-14.25c1.06-3.92,5.23-5.62,9.85-5.61,2.29-.01,3.99.27,6.02.99v4.31c-2.5-1.83-4.29-2.89-7.13-2.89-2.49,0-5.49,1.11-5.49,4.8-.05,2.78,1.61,3.28,6.47,5.71,3.99,1.74,7.68,3.67,7.7,8.13,0,7.43-7.28,8.72-10.82,8.73-3.16,0-6.06-.79-7.68-2.14v-4.91l.26.22c2.88,2.7,5.42,4.1,8.71,4.1,3.24.02,6.12-1.57,6.12-4.64,0-2.56-2.26-4.06-6.28-5.77-3.85-1.68-6.38-2.79-7.41-5.57-1.57,3.85-8.88,21.75-10.6,25.58h-3.94l1.78-3.35c.99-1.96,2.42-5.03,3.7-7.96l-7.58-18.42c-.05-.11-.18-.4-.43-.98-.58-1.33-1.12-2.57-2.76-3.19-.88-.3-1.81-.45-2.9-.45-2.49,0-5.69,1.11-5.69,4.8-.05,2.78,1.8,3.28,6.66,5.71,3.99,1.75,7.68,3.67,7.7,8.13,0,7.43-7.28,8.72-10.82,8.73-2.81,0-5.42-.62-7.09-1.71v-4.82"/>
      <path id="path165" class="cls-1" d="M59.86,28.17l.05,3.25v.22s.04,0,.04,0c.05-.14.12-.25.19-.34,1.63-1.76,3.69-3.51,8.58-3.51s7.71,4,7.83,6.52v17.82s0,.09,0,.09v4.42h-4.01v-20.48c0-3.14-2.74-5.41-6.1-5.41-2.79,0-6.37,2.52-6.49,5.08v16.43s0,4.39,0,4.39h-4.01v-28.48h3.91"/>
    </g>
  </g>
</svg>