<?xml version="1.0" encoding="UTF-8"?>
<svg id="Layer_1" data-name="Layer 1" xmlns="http://www.w3.org/2000/svg" width="210" height="84" viewBox="0 0 210 84">
  <defs>
    <style>
      .cls-1 {
        fill: red;
      }

      .cls-1, .cls-2 {
        stroke-width: 0px;
      }

      .cls-2 {
        fill: #fff;
      }
    </style>
  </defs>
  <circle class="cls-1" cx="105" cy="42" r="28.41"/>
  <path class="cls-2" d="M118.23,48.06c-2.09,0-3.53-1.53-3.53-3.73s1.47-3.69,3.53-3.69,3.53,1.53,3.53,3.72-1.5,3.69-3.53,3.69h0ZM118.3,35.86c-5.36,0-8.93,3.4-8.93,8.47s3.44,8.53,8.83,8.53,8.89-3.34,8.89-8.5-3.49-8.5-8.79-8.5h0ZM104.48,28.44c-2.03,0-3.3,1.14-3.3,2.94s1.31,2.98,3.4,2.98,3.3-1.14,3.3-2.98-1.31-2.94-3.4-2.94ZM104.84,36.02h-.66c-1.6,0-2.81.75-2.81,3.04v10.46c0,2.32,1.17,3.04,2.88,3.04h.65c1.6,0,2.75-.78,2.75-3.04v-10.46c0-2.36-1.11-3.04-2.81-3.04ZM96.28,31.09h-.95c-1.8,0-2.78,1.02-2.78,3.04v9.78c0,2.52-.85,3.4-2.84,3.4-1.57,0-2.84-.69-3.86-1.93-.1-.13-2.16.85-2.16,3.27,0,2.61,2.45,4.22,7,4.22,5.53,0,8.43-2.78,8.43-8.86v-9.88c0-2.03-.98-3.04-2.85-3.04Z"/>
</svg>