<?xml version="1.0" encoding="UTF-8"?>
<svg id="Layer_1" data-name="Layer 1" xmlns="http://www.w3.org/2000/svg" width="210" height="84" xmlns:xlink="http://www.w3.org/1999/xlink" viewBox="0 0 210 84">
  <defs>
    <style>
      .cls-1 {
        fill: url(#linear-gradient);
      }

      .cls-1, .cls-2 {
        stroke-width: 0px;
      }

      .cls-2 {
        fill: #0460a9;
      }
    </style>
    <linearGradient id="linear-gradient" x1="372.26" y1="-880.15" x2="395.37" y2="-880.15" gradientTransform="translate(-347.73 -840.42) scale(1 -1)" gradientUnits="userSpaceOnUse">
      <stop offset=".3" stop-color="#e74a21"/>
      <stop offset=".7" stop-color="#ec9a1e"/>
    </linearGradient>
  </defs>
  <path class="cls-1" d="M40.49,37.09l-.06.17c1.08.48,3.51,2.36,3.51,6.16,0,3.58-3.01,7.18-7.75,7.18-5.89,0-7.92-3.45-7.92-6.61,0-4.06,2.84-6.76,2.84-10.45-.03-2.69-1.92-5-4.55-5.57l-.1.17c.94.91,1.46,2.16,1.45,3.46,0,3.99-3.36,6.83-3.36,11.41,0,4.22,2.95,8.52,11.49,8.52,7.61,0,11.62-3.73,11.62-7.69,0-3.4-2.44-6.28-7.16-6.73Z"/>
  <path class="cls-2" d="M73.92,50.83l-10.12-13.04v11.76l2.06.49v.54h-4.7v-.54l1.69-.49v-12.81c-.41-.38-.9-.66-1.44-.82-.21-.04-.48-.09-.48-.09v-.54h3.99l8.64,11.23v-10.19l-2.06-.5v-.54h4.7v.54l-1.69.5v11.66c0,1.08.08,2.65.09,2.85h-.69ZM95.07,42.52c0,5.4-3.78,8.53-7.91,8.53s-7.93-3.18-7.93-8.11,3.78-8.14,7.89-8.14c4.25-.14,7.81,3.19,7.95,7.44,0,.1,0,.19,0,.29h0ZM92.44,43.33c0-3.97-2.38-7.82-5.61-7.82-3.43,0-4.99,3.32-4.99,6.88s1.96,7.96,5.65,7.96c3.47,0,4.94-3.51,4.94-7.02ZM98.34,36.31l-1.62-.5v-.54h6.21v.54l-1.94.5,4.28,11.68,4.28-11.68-1.94-.5v-.54h4.59v.54l-1.62.5-5.36,14.56h-1.37l-5.5-14.56ZM135.01,42.76h-.98v-6.69c3.24,0,5.17.75,5.17,3.39-.02,1.97-1.7,3.29-4.19,3.29ZM162.77,50.03l2.16-.49v-13.23l-2.16-.5v-.54h6.73v.54l-2.16.5v13.23l2.16.49v.54h-6.73v-.54ZM173.64,46.37h.43l1.43,3.29c.85.43,1.79.66,2.74.68,1.86,0,3.55-1.08,3.55-3.01,0-1.47-.95-2.34-2.49-3.15l-1.52-.79c-1.82-.95-3.64-2.28-3.64-4.44,0-2.34,1.62-4.15,5.09-4.15,1.22.01,2.43.21,3.59.59l.36,3.54h-.46l-1.32-2.84c-.69-.38-1.46-.58-2.24-.58-1.76,0-2.95,1.08-2.95,2.58,0,1.36.9,2.21,2.45,3.01l1.8.94c2.46,1.27,3.63,2.46,3.63,4.64,0,2.7-2.53,4.38-5.68,4.38-1.48.02-2.96-.2-4.37-.65l-.39-4.03ZM111.2,50.03l1.73-.49,5.35-14.27,1.79-.46,5.53,14.73,1.73.5v.54h-6.56v-.54l2.22-.5-1.57-4.23h-5.89l-1.56,4.23,2.22.49v.54h-5.01v-.53ZM115.95,44.17h5.09l-2.53-6.83-2.57,6.83ZM138.1,43.09c.54-.14,3.57-.91,3.57-3.78,0-2.31-1.77-4.09-6.12-4.09-2.7,0-5.4.06-5.74.07v.54l1.78.5v13.21l-1.78.5v.54h6.29v-.54l-2.06-.5v-5.97h1.78l4.54,7.02h4.02v-.54l-2.04-.54-4.24-6.41ZM151.37,36.07v13.47l-2.16.49v.54h6.73v-.54l-2.16-.49v-13.46h3.63l1.2,2.58h.46l-.35-3.36h-12.32l-.35,3.36h.46l1.19-2.55,3.65-.03ZM36.12,45.79l2.16-20.41h-4.48l2.16,20.41h.16Z"/>
</svg>