<?xml version="1.0" encoding="UTF-8"?>
<svg id="Layer_1" data-name="Layer 1" xmlns="http://www.w3.org/2000/svg" width="210" height="84" xmlns:xlink="http://www.w3.org/1999/xlink" viewBox="0 0 210 84">
  <defs>
    <style>
      .cls-1 {
        clip-path: url(#clippath-2);
      }

      .cls-2 {
        fill: none;
      }

      .cls-2, .cls-3 {
        stroke-width: 0px;
      }

      .cls-4 {
        clip-path: url(#clippath-1);
      }

      .cls-5 {
        clip-path: url(#clippath);
      }

      .cls-3 {
        fill: #0056a8;
      }
    </style>
    <clipPath id="clippath">
      <rect class="cls-2" x="29.09" y="30.47" width="151.83" height="23.06"/>
    </clipPath>
    <clipPath id="clippath-1">
      <rect class="cls-2" x="29.09" y="30.47" width="151.83" height="23.06"/>
    </clipPath>
    <clipPath id="clippath-2">
      <rect class="cls-2" x="29.09" y="30.47" width="151.83" height="23.06"/>
    </clipPath>
  </defs>
  <g id="g3344">
    <g id="g3532">
      <g class="cls-5">
        <g id="g3534">
          <g id="g3540">
            <path id="path3542" class="cls-3" d="M177.67,50.92c-1.21,1.27-2.58,2.03-4.3,2.38-1.16.23-2.18.28-3.36.16-1.56-.16-2.86-.66-4.11-1.61-1.03-.77-1.77-1.6-2.41-2.71-.5-.86-.79-1.67-.95-2.65-.23-1.36-.17-2.56.19-3.89.82-3.03,3.1-5.17,6.17-5.81,1.75-.36,3.31-.33,5.05.12,1.23.32,2.21.86,3.15,1.73.59.55,1.01,1.1,1.38,1.81.44.84.62,1.66.57,2.6h-5.48c-.12-.73-.47-1.32-1.06-1.77-.77-.58-1.75-.63-2.57-.12-.56.35-.93.82-1.12,1.45-.47,1.5-.49,2.89-.07,4.4.18.64.48,1.13.96,1.59.55.52,1.23.74,1.98.63.46-.07.84-.27,1.15-.62.33-.36.52-.75.6-1.23.06-.34.09-.63.11-.97h5.77c.12,1.74-.44,3.27-1.64,4.53"/>
          </g>
        </g>
      </g>
    </g>
    <path id="path3544" class="cls-3" d="M155.6,34.81h5.99v-4.23h-5.99v4.23Z"/>
    <path id="path3546" class="cls-3" d="M155.6,53h5.99v-16.02h-5.99v16.02Z"/>
    <g id="g3548">
      <path id="path3550" class="cls-3" d="M143.19,38.67c.79-.69,1.54-1.18,2.49-1.61,1.55-.71,3.09-.83,4.73-.35,1.76.51,3.02,1.75,3.57,3.49.27.84.38,1.58.38,2.46v10.34h-6.36v-9.3c0-.31-.04-.57-.13-.87-.16-.53-.52-.93-1.03-1.14-1.13-.48-2.41-.05-3.03,1-.26.44-.38.87-.38,1.39v8.92h-6.16v-16.02h5.78l.13,1.69"/>
    </g>
    <g id="g3552">
      <path id="path3554" class="cls-3" d="M72.36,38.67c.79-.69,1.54-1.18,2.49-1.61,1.55-.71,3.1-.83,4.73-.35,1.76.51,3.02,1.75,3.57,3.49.27.84.38,1.58.38,2.46v10.34h-6.36v-9.3c0-.31-.04-.57-.13-.87-.16-.53-.52-.93-1.03-1.14-1.13-.48-2.41-.05-3.03,1-.26.44-.38.87-.38,1.39v8.92h-6.16v-16.02h5.78l.13,1.69"/>
    </g>
    <g id="g3556">
      <g class="cls-4">
        <g id="g3558">
          <g id="g3564">
            <path id="path3566" class="cls-3" d="M110.11,47.11c.46.08.84.17,1.28.32.37.12.62.41.7.78.09.41-.03.8-.32,1.1-.3.3-.64.48-1.07.55-.56.09-1.07.04-1.6-.15-.26-.09-.47-.21-.68-.39-.28-.23-.45-.5-.56-.84-.09-.29-.13-.55-.12-.85h-5.87v.34c0,.55.09,1.02.28,1.54.29.78.7,1.38,1.31,1.94.79.74,1.62,1.21,2.67,1.5,2.17.62,4.12.74,6.35.4,1.05-.16,1.91-.44,2.85-.93.41-.21.75-.44,1.1-.74,1.58-1.33,2.17-3.36,1.54-5.33-.24-.74-.62-1.31-1.21-1.83-.81-.7-1.63-1.15-2.65-1.45-.22-.06-.42-.12-.64-.18-1.26-.35-2.34-.58-3.63-.77-.35-.05-.64-.11-.98-.19-.16-.04-.29-.08-.43-.15-.36-.16-.52-.59-.36-.95,0-.02.02-.04.03-.05.19-.35.48-.57.86-.68.67-.19,1.29-.18,1.94.05.63.21,1.03.79,1,1.46h5.65c0-.69-.11-1.28-.35-1.93-.24-.66-.6-1.17-1.16-1.6-.48-.38-.94-.64-1.51-.86-.56-.22-1.05-.35-1.64-.46-1.4-.24-2.61-.31-4.02-.23-.81.05-1.49.15-2.29.33-1.07.25-1.93.66-2.79,1.34-.73.57-1.21,1.25-1.52,2.13-.14.4-.21.75-.22,1.17-.03.7.07,1.3.33,1.95.47,1.17,1.29,2,2.47,2.47.59.24,1.11.39,1.74.52,1.23.25,2.28.45,3.52.67"/>
          </g>
        </g>
      </g>
    </g>
    <g id="g3568">
      <path id="path3570" class="cls-3" d="M40,46.09h-4.11v-5.25h2.67c.51,0,.94-.01,1.44-.04.7-.04,1.29-.35,1.71-.92.22-.3.35-.6.4-.97.04-.31.05-.58.02-.89-.11-1.17-1.08-2.05-2.26-2.05h-3.98v17.03h-6.8v-22.42h11.12c.44,0,.82,0,1.26.03,2.95.16,5.38,1.8,6.63,4.47.65,1.39.87,2.73.7,4.26-.35,3.22-2.61,5.72-5.77,6.42-1.05.23-1.96.33-3.03.33"/>
    </g>
    <g id="g3572">
      <path id="path3574" class="cls-3" d="M129.32,36.67c-.63-.1-1.17-.14-1.81-.14s-1.18.04-1.82.14c-1.84.29-3.33,1.03-4.67,2.32-1.44,1.38-2.22,3.01-2.4,5-.11,1.22-.02,2.27.31,3.45.5,1.81,1.45,3.2,2.94,4.34.98.75,1.96,1.21,3.16,1.47.86.19,1.6.27,2.48.27s1.62-.08,2.48-.27c1.21-.26,2.18-.71,3.16-1.47l-3.44-3.75c-.55,1.22-1.97,1.76-3.19,1.21-.56-.25-.96-.65-1.21-1.21-.23-.52-.37-.98-.45-1.55-.17-1.12-.15-2.1.07-3.22.11-.58.31-1.05.63-1.55.71-1.08,2.15-1.38,3.24-.67.28.19.49.39.67.67.32.49.52.97.63,1.55.22,1.12.24,2.09.07,3.22-.08.56-.22,1.03-.45,1.55l3.44,3.75c1.49-1.14,2.43-2.54,2.94-4.34.33-1.18.42-2.23.31-3.45-.18-1.98-.96-3.62-2.4-5-1.34-1.29-2.83-2.03-4.67-2.32"/>
    </g>
    <g id="g3576">
      <g class="cls-1">
        <g id="g3578">
          <g id="g3584">
            <path id="path3586" class="cls-3" d="M101.22,51.74c-.09-1.32-.14-2.44-.17-3.76-.03-1.74-.06-3.21-.07-4.95,0-.94-.11-1.73-.35-2.64-.31-1.19-1.01-2.1-2.08-2.7-.65-.36-1.24-.59-1.97-.74-2.31-.49-4.35-.54-6.68-.13-.65.11-1.2.27-1.81.52-1.42.59-2.39,1.66-2.85,3.12-.17.56-.22,1.07-.15,1.65.01.11.04.2.09.3l5.39.13c-.01-.34.03-.63.15-.96.18-.49.52-.84,1.02-1.02.72-.27,1.42-.28,2.15-.04.48.16.82.51.97.99.09.3.05.6-.14.86-.16.23-.36.38-.62.48-.16.06-.3.11-.46.15-.75.2-1.39.34-2.15.47-.61.1-1.12.19-1.72.32-.82.16-1.5.34-2.29.6-.72.23-1.29.57-1.85,1.08-.73.67-1.14,1.45-1.28,2.43-.09.65-.07,1.22.07,1.86.38,1.67,1.54,2.91,3.18,3.38,1.82.53,3.54.44,5.3-.27.86-.34,1.51-.82,2.1-1.53l-.38-2.75c-.27.42-.61.71-1.06.91-.43.19-.81.29-1.28.34-.39.04-.72.01-1.1-.1-.31-.08-.54-.23-.76-.46-.18-.2-.29-.41-.35-.67-.08-.4.05-.79.36-1.06.21-.18.42-.3.68-.4.63-.23,1.16-.4,1.8-.58.77-.22,1.42-.46,2.15-.79.07.59.07,1.09-.01,1.67-.06.43-.19.78-.42,1.14l.38,2.75c.12.39.23.72.36,1.1.08.21.17.38.32.55h5.94c-.25-.4-.38-.79-.41-1.26"/>
          </g>
          <g id="g3588">
            <path id="path3590" class="cls-3" d="M65.26,51.74c-.09-1.32-.14-2.44-.17-3.76-.04-1.74-.06-3.21-.07-4.95,0-.94-.11-1.73-.35-2.64-.31-1.19-1-2.1-2.08-2.7-.65-.36-1.24-.59-1.97-.74-2.31-.49-4.35-.54-6.68-.13-.65.11-1.2.27-1.81.52-1.42.59-2.39,1.66-2.85,3.12-.17.56-.22,1.07-.15,1.65.01.11.04.2.09.3l5.39.13c-.01-.34.03-.63.15-.96.18-.49.52-.84,1.02-1.02.72-.27,1.42-.28,2.15-.04.48.16.83.51.98.99.09.3.05.6-.14.86-.16.23-.36.38-.62.48-.16.06-.3.11-.46.15-.75.2-1.39.34-2.15.47-.6.1-1.12.19-1.72.32-.82.16-1.5.34-2.29.6-.72.23-1.29.57-1.85,1.08-.73.67-1.14,1.45-1.28,2.43-.09.65-.07,1.22.07,1.86.38,1.67,1.54,2.91,3.18,3.38,1.83.53,3.54.44,5.3-.27.86-.34,1.51-.82,2.1-1.53l-.38-2.75c-.27.42-.61.71-1.07.91-.43.19-.81.29-1.28.34-.39.04-.72.01-1.1-.1-.31-.08-.54-.23-.76-.46-.18-.2-.29-.41-.35-.67-.08-.4.05-.79.36-1.06.21-.18.42-.3.68-.4.63-.23,1.16-.4,1.8-.58.77-.22,1.42-.46,2.15-.79.07.59.07,1.09-.01,1.67-.06.43-.19.78-.42,1.14l.38,2.75c.12.39.23.72.36,1.1.07.21.17.38.32.55h5.94c-.25-.4-.38-.79-.41-1.26"/>
          </g>
        </g>
      </g>
    </g>
  </g>
</svg>