<?xml version="1.0" encoding="UTF-8"?>
<svg id="Layer_1" data-name="Layer 1" xmlns="http://www.w3.org/2000/svg" width="210" height="84" viewBox="0 0 210 84">
  <defs>
    <style>
      .cls-1 {
        fill: #233266;
      }

      .cls-1, .cls-2 {
        stroke-width: 0px;
      }

      .cls-2 {
        fill: #54c1f0;
      }
    </style>
  </defs>
  <g id="layer1">
    <g id="g52">
      <path id="path54" class="cls-2" d="M158.88,34.97c-.99-2.84-3.7-4.88-6.88-4.88h-.07c-2.07,0-3.93.86-5.26,2.24-1.33-1.38-3.19-2.24-5.26-2.24h-.07c-1.82,0-3.48.67-4.75,1.77v-.56c-.04-.56-.5-1-1.07-1h-4.88c-.6,0-1.08.48-1.08,1.08v26.49c0,.6.48,1.08,1.08,1.08h4.88c.54,0,.99-.41,1.06-.93v-19.02c0-.07,0-.13,0-.19.08-.85.7-1.55,1.68-1.63h.9c.41.04.76.18,1.03.4.42.34.66.86.66,1.42l.02,18.92c0,.6.48,1.08,1.08,1.08h4.88c.58,0,1.04-.46,1.07-1.03v-19c0-.62.28-1.19.79-1.52.25-.16.55-.27.9-.3h.9c1.06.09,1.69.89,1.69,1.82l.02,18.9c0,.6.48,1.08,1.08,1.08h4.88c.59,0,1.08-.48,1.08-1.08v-20.33c0-1.39-.16-1.98-.37-2.58"/>
    </g>
    <g id="g56">
      <path id="path58" class="cls-2" d="M125.86,30.36h-2.79v-4.52h0c0-.56-.44-1-.98-1-.06,0-.13,0-.19.02-3.09.85-2.47,5.13-8.12,5.5h-.55c-.08,0-.16.01-.24.03h0,0c-.48.11-.84.54-.84,1.05v4.88c0,.59.48,1.08,1.08,1.08h2.94v20.69c0,.59.47,1.07,1.06,1.07h4.82c.59,0,1.06-.48,1.06-1.07v-20.69h2.74c.59,0,1.08-.48,1.08-1.08v-4.88c0-.59-.48-1.08-1.08-1.08"/>
    </g>
    <g id="g60">
      <path id="path62" class="cls-1" d="M108.31,30.36h-4.88c-.59,0-1.08.48-1.08,1.08v10.09c-.01.62-.52,1.12-1.14,1.12h-2.04c-.63,0-1.15-.51-1.15-1.14l-.02-10.07c0-.59-.48-1.08-1.08-1.08h-4.88c-.6,0-1.08.48-1.08,1.08v11.06c0,4.2,2.99,7.19,7.2,7.19,0,0,3.15,0,3.25.02.57.06,1.01.54,1.01,1.13s-.43,1.06-1,1.13c-.03,0-.05.01-.08.02l-7.13.03c-.6,0-1.08.48-1.08,1.08v4.88c0,.6.48,1.08,1.08,1.08h7.98c4.2,0,7.2-2.99,7.2-7.19v-20.4c0-.59-.48-1.08-1.08-1.08"/>
    </g>
    <g id="g64">
      <path id="path66" class="cls-1" d="M61.09,39.3v3.01c0,.63-.51,1.15-1.14,1.15h-3.1s0-6.03,0-6.03h3.1c.63,0,1.14.51,1.14,1.14v.73ZM61.52,30.36h-10.66c-.59,0-1.06.47-1.06,1.06v4.78s0,.02,0,.03c0,.02,0,.05,0,.07v21.63c0,.59.44,1.07.99,1.08h4.97c.59,0,1.08-.48,1.08-1.08l.02-7.41h4.67c3.91,0,6.63-2.71,6.63-6.63v-6.88c0-3.92-2.72-6.64-6.63-6.64"/>
    </g>
    <g id="g68">
      <path id="path70" class="cls-1" d="M81.33,50.76v.76c0,.06,0,.12-.02.18-.01.06-.03.11-.05.16-.15.43-.58.74-1.09.74h-2.03c-.63,0-1.15-.48-1.15-1.07v-.92s0-.02,0-.03v-2.45s0,0,0,0v-.76h0c0-.6.51-1.07,1.15-1.07h2.03c.64,0,1.15.48,1.15,1.07v3.41ZM80.55,30.39h-6.77c-.6,0-1.08.45-1.08,1.01v1.9s0,.03,0,.04c0,.01,0,.03,0,.04v2.6c0,.59.51,1.07,1.15,1.07h6.45c.51.08.91.45.97,1.03v.63c-.06.55-.46.96-.94,1h-3.19c-4.25,0-7.27,2.82-7.27,6.78v5.67c0,3.94,2.6,6.74,6.82,6.74h8.85c1.59,0,2.88-1.2,2.88-2.68v-18.51c0-4.49-2.31-7.32-7.84-7.32"/>
    </g>
  </g>
</svg>