<?xml version="1.0" encoding="UTF-8"?>
<svg id="Layer_1" data-name="Layer 1" xmlns="http://www.w3.org/2000/svg" width="210" height="84" viewBox="0 0 210 84">
  <defs>
    <style>
      .cls-1 {
        fill: #00b5ef;
      }

      .cls-1, .cls-2 {
        stroke-width: 0px;
      }

      .cls-2 {
        fill: #292075;
      }
    </style>
  </defs>
  <g id="layer1">
    <g id="g9996">
      <path id="path2868" class="cls-2" d="M109.74,42.66c-1.96-1.62-4.49-2.67-6.72-3.59-3.08-1.27-5.74-2.37-5.74-4.41,0-.89.42-1.71,1.17-2.3.8-.62,1.91-.96,3.14-.96,3.85,0,6.92,2.72,6.95,2.75l.75.69,3.41-6.4-.39-.41c-.15-.16-3.74-3.87-10.67-3.87-3.33,0-6.38,1.06-8.62,2.99-2.26,1.96-3.51,4.66-3.51,7.61s1.12,5.2,3.41,7.11c1.93,1.6,4.33,2.64,6.65,3.64,3.17,1.36,5.91,2.55,5.91,4.65,0,1.6-1.08,3.31-4.12,3.31-4.35,0-7.85-3.32-7.88-3.35l-.66-.64-4.24,5.88.42.47s1.14,1.26,3.2,2.46c1.89,1.1,4.99,2.42,9.06,2.42,3.55,0,6.58-1.09,8.76-3.15,2.05-1.94,3.18-4.62,3.18-7.55s-1.13-5.41-3.46-7.34"/>
      <path id="path2870" class="cls-2" d="M145.6,60.17h7.95V24.68h-7.95v35.49Z"/>
      <path id="path2874" class="cls-2" d="M130.06,53.52h-6.05v-22.2h5.33c2.39,0,3.76,1.34,3.76,3.67s-1.23,3.55-3.67,3.55h-1.84v6.53h2.46c1.34,0,2.46.42,3.24,1.22.81.84,1.14,1.66,1.14,2.85,0,2.7-1.68,4.38-4.38,4.38M140.61,44.22c-.79-1.24-1.86-2.22-3.15-2.88,2.07-1.66,3.24-4.21,3.24-7.12s-1.12-5.4-3.24-7.1c-2-1.6-4.77-2.45-8.03-2.45h-12.93v35.49h13.08c3.47,0,6.47-.88,8.68-2.54,2.51-1.88,3.83-4.69,3.83-8.11,0-1.95-.51-3.78-1.48-5.3"/>
      <path id="path2878" class="cls-1" d="M64.81,24.04c-10.13,0-18.35,8.23-18.35,18.39,0,9.52,7.22,17.35,16.47,18.3v-13.36c-1.99-.76-3.4-2.68-3.4-4.94,0-2.91,2.37-5.28,5.28-5.28s5.28,2.37,5.28,5.28c0,2.25-1.42,4.18-3.41,4.94v13.36c9.25-.94,16.47-8.77,16.47-18.3,0-10.16-8.22-18.39-18.35-18.39"/>
    </g>
  </g>
</svg>