<?xml version="1.0" encoding="UTF-8"?>
<svg id="Layer_1" data-name="Layer 1" xmlns="http://www.w3.org/2000/svg" width="210" height="84" viewBox="0 0 210 84">
  <defs>
    <style>
      .cls-1 {
        fill: #fc8019;
        stroke-width: 0px;
      }
    </style>
  </defs>
  <path class="cls-1" d="M46.58,63.19s-.06-.05-.09-.07c-.51-.63-3.67-4.59-6.89-9.66-.97-1.62-1.59-2.88-1.47-3.2.31-.85,5.92-1.31,7.65-.54.53.23.51.54.51.72,0,.78-.04,2.86-.04,2.86,0,.43.35.78.78.78.43,0,.78-.35.78-.78v-5.19h0c0-.45-.49-.56-.58-.58-.9,0-2.73-.01-4.7-.01-4.34,0-5.31.18-6.04-.3-1.6-1.04-4.21-8.08-4.27-12.04-.09-5.59,3.22-10.42,7.88-12.82,1.95-.98,4.15-1.53,6.47-1.53,7.38,0,13.45,5.57,14.26,12.73,0,0,0,.01,0,.02.15,1.73-9.4,2.1-11.28,1.6-.29-.08-.36-.37-.36-.5,0-1.32-.01-5.02-.01-5.02,0-.43-.35-.78-.78-.78h0c-.43,0-.78.35-.78.78l.02,6.83c.01.43.37.55.47.57,1.07,0,3.58,0,5.92,0,3.16,0,4.49.37,5.37,1.04.59.45.81,1.31.62,2.42-1.77,9.91-13,22.19-13.42,22.71h0ZM77.03,40.05c2.83,1.21,4.59,2.56,4.59,5.52s-2.29,4.97-5.83,4.97c-2.87,0-5.17-1.3-6.32-3.57l-.19-.37,3.37-1.95.22.36c.76,1.24,1.61,1.77,2.84,1.77,1.06,0,1.78-.47,1.78-1.17,0-.78-.52-1.07-2.11-1.77l-.81-.35c-2.16-.92-4.17-2.2-4.17-5.31,0-2.79,2.14-4.74,5.2-4.74,2.32,0,3.91.9,5.01,2.83l.2.36-3.27,2.1-.23-.4c-.55-.98-1.06-1.17-1.71-1.17s-1.12.38-1.12.96c0,.67.32.97,1.74,1.58l.81.35ZM100.91,40.63l2.38-6.64h4.09l-6.06,16.83h-.91l-3.67-7.88c-.17-.36-.35-.81-.5-1.22-.16.41-.34.86-.51,1.22l-3.82,7.88h-.9l-6.15-16.83h4.37l2.41,6.64c.15.42.31.94.45,1.42.16-.49.36-1.03.57-1.46l3.16-6.74h.87l3.21,6.74c.2.43.4.96.57,1.46.14-.48.3-1,.45-1.42h0ZM112.15,50.34v-16.69h4.13v16.69h-4.13ZM129.8,44.73v-3.73h7.66v7.48l-.16.13c-.88.72-3.2,1.94-6.35,1.94-5.31,0-9.02-3.52-9.02-8.56s3.58-8.53,8.51-8.53c2.71,0,4.7.76,6.07,2.34l.27.31-2.81,2.78-.31-.31c-.79-.81-1.6-1.31-3.22-1.31-2.52,0-4.29,1.95-4.29,4.73s1.88,4.78,4.8,4.78c.97,0,1.97-.17,2.66-.43v-1.61h-3.81ZM150.7,44.73v-3.73h7.66v7.48l-.16.13c-.88.72-3.2,1.94-6.35,1.94-5.31,0-9.02-3.52-9.02-8.56s3.58-8.53,8.5-8.53c2.71,0,4.7.76,6.07,2.34l.27.31-2.81,2.78-.31-.31c-.79-.81-1.6-1.31-3.22-1.31-2.52,0-4.29,1.95-4.29,4.73s1.88,4.78,4.8,4.78c.97,0,1.97-.17,2.66-.43v-1.61h-3.81ZM173.48,33.64h4.31l-5.92,11.11v5.59h-4.15v-5.35l-6.3-11.35h4.6l2.91,5.32c.31.58.64,1.34.89,1.97.24-.62.55-1.37.86-1.96l2.8-5.33Z"/>
</svg>