<?xml version="1.0" encoding="UTF-8"?>
<svg id="Layer_1" data-name="Layer 1" xmlns="http://www.w3.org/2000/svg" width="210" height="84" viewBox="0 0 210 84">
  <defs>
    <style>
      .cls-1 {
        fill: #000;
      }

      .cls-1, .cls-2 {
        stroke-width: 0px;
      }

      .cls-2 {
        fill: #d52b1e;
      }
    </style>
  </defs>
  <polygon class="cls-2" points="180.73 24.44 172.08 42.95 168.82 35.94 165.3 35.94 170.65 47.41 173.5 47.41 184.23 24.44 180.73 24.44"/>
  <path class="cls-1" d="M143.6,58.82h6.97v-12.75c0-2.92,1.69-4.97,4.2-4.97s3.66,1.69,3.66,4.12v13.6h6.97v-14.92c0-5.06-3.04-8.63-7.96-8.63-3.13,0-5.33,1.35-6.97,3.81h-.14v-3.13h-6.75l.02,22.88h0ZM129.91,35.31c-7.28,0-12.15,5.23-12.15,12.13s4.87,12.13,12.15,12.13,12.15-5.28,12.15-12.13c.02-6.9-4.87-12.13-12.15-12.13ZM129.86,54.41c-3.3,0-5.06-2.77-5.06-6.97s1.74-6.97,5.06-6.97,5.14,2.72,5.14,6.97c.02,4.2-1.81,6.97-5.14,6.97ZM97.89,58.82h19.58v-5.5h-11.09v-.14l10.61-11.89v-5.38h-19.1v5.52h10.73v.14l-10.73,11.98v5.26h0ZM88.94,58.82h7.02v-22.88h-7.02v22.88ZM72.67,58.82h6.99v-10.51c0-4.77,2.87-6.9,7.23-6.29h.14v-6.03c-.36-.14-.77-.17-1.42-.17-2.72,0-4.56,1.25-6.12,3.93h-.14v-3.81h-6.68v22.88h0ZM59.84,54.43c-3.09,0-4.97-2-5.33-5.09h16.49c.05-4.92-1.25-8.85-3.98-11.31-1.93-1.78-4.46-2.77-7.69-2.77-6.9,0-11.67,5.23-11.67,12.08s4.56,12.15,12.13,12.15c2.87,0,5.14-.77,7.02-2.05,2-1.37,3.45-3.4,3.83-5.4h-6.7c-.65,1.49-2.05,2.39-4.1,2.39ZM59.48,40.25c2.46,0,4.15,1.83,4.44,4.51h-9.36c.55-2.7,2.03-4.51,4.92-4.51ZM33.73,58.82h7.33l7.96-22.88h-7.02l-4.46,14.71h-.1l-4.46-14.71h-7.21l7.96,22.88ZM88.94,27.79h7.02v6.22h-7.02v-6.22Z"/>
</svg>