<?xml version="1.0" encoding="UTF-8"?>
<svg id="Layer_1" data-name="Layer 1" xmlns="http://www.w3.org/2000/svg" width="210" height="84" viewBox="0 0 210 84">
  <defs>
    <style>
      .cls-1 {
        fill: #0071ce;
      }

      .cls-1, .cls-2 {
        stroke-width: 0px;
      }

      .cls-2 {
        fill: #ffc220;
      }
    </style>
  </defs>
  <path class="cls-1" d="M116.78,43.13c0-3.49-1.49-6.56-6.54-6.56-2.59,0-4.65.74-5.76,1.38l.82,2.8c1.03-.64,2.66-1.17,4.21-1.17,2.55,0,2.97,1.44,2.97,2.37v.22c-5.58,0-9.1,1.92-9.1,5.84,0,2.4,1.79,4.65,4.92,4.65,1.91,0,3.52-.77,4.48-1.99h.09s.64,2.66,4.15,1.64c-.18-1.11-.25-2.29-.25-3.71v-5.47ZM112.62,46.82c0,.28-.02.57-.11.82-.32,1.07-1.43,1.97-2.81,1.97-1.16,0-2.08-.66-2.08-2.04,0-2.11,2.33-2.69,4.99-2.68"/>
  <path class="cls-1" d="M31.4,31.83s3.64,14.9,4.22,17.32c.68,2.82,1.9,3.86,5.43,3.17l2.28-9.24c.58-2.29.97-3.93,1.34-6.26h.06c.26,2.36.63,3.97,1.1,6.27,0,0,.93,4.2,1.41,6.4.47,2.2,1.79,3.59,5.25,2.84l5.42-20.48h-4.37l-1.86,8.86c-.49,2.57-.94,4.59-1.29,6.94h-.06c-.31-2.33-.71-4.27-1.22-6.78l-1.93-9.02h-4.56l-2.06,8.79c-.59,2.68-1.13,4.84-1.48,7.12h-.06c-.36-2.14-.84-4.86-1.35-7.44,0,0-1.22-6.29-1.65-8.46"/>
  <path class="cls-1" d="M70.1,43.13c0-3.49-1.5-6.56-6.54-6.56-2.58,0-4.64.74-5.76,1.38l.82,2.8c1.02-.64,2.66-1.17,4.21-1.17,2.55,0,2.97,1.44,2.97,2.37v.22c-5.58,0-9.1,1.92-9.1,5.84,0,2.4,1.8,4.65,4.91,4.65,1.93,0,3.53-.77,4.49-1.99h.1s.64,2.66,4.15,1.64c-.18-1.11-.24-2.29-.24-3.71v-5.47ZM65.94,46.82c0,.28-.02.57-.1.82-.32,1.07-1.43,1.97-2.81,1.97-1.16,0-2.07-.66-2.07-2.04,0-2.11,2.33-2.69,4.99-2.68"/>
  <polygon class="cls-1" points="72.37 31.83 72.37 52.31 76.54 52.31 76.54 47.96 76.54 31.83 72.37 31.83"/>
  <path class="cls-1" d="M129.55,31.83v15.11c0,2.09.39,3.54,1.23,4.43.74.78,1.95,1.29,3.39,1.29,1.24,0,2.45-.24,3.02-.45l-.05-3.25c-.43.1-.92.18-1.59.18-1.42,0-1.89-.9-1.89-2.77v-5.78h3.63v-3.91h-3.63v-4.85"/>
  <path class="cls-1" d="M118.79,36.93v15.39h4.3v-7.88c0-.42.03-.79.09-1.13.32-1.66,1.58-2.71,3.4-2.71.51,0,.85.06,1.23.12v-4.03c-.32-.06-.54-.09-.93-.09-1.61,0-3.44,1.02-4.21,3.25h-.11v-2.91"/>
  <path class="cls-1" d="M78.95,36.93v15.39h4.19v-9.03c0-.42.05-.86.2-1.25.34-.91,1.19-1.97,2.55-1.97,1.69,0,2.49,1.43,2.49,3.48v8.77h4.18v-9.14c0-.4.06-.89.17-1.24.34-1.04,1.25-1.87,2.52-1.87,1.71,0,2.53,1.39,2.53,3.82v8.43h4.18v-9.07c0-4.77-2.42-6.66-5.18-6.66-1.21,0-2.17.3-3.04.83-.73.45-1.37,1.08-1.95,1.91h-.06c-.66-1.66-2.22-2.74-4.25-2.74-2.6,0-3.79,1.32-4.48,2.43h-.06v-2.08"/>
  <path class="cls-2" d="M159.82,36.23c.82,0,1.52-.43,1.61-.98l.82-9.24c0-.91-1.08-1.66-2.42-1.66s-2.42.75-2.42,1.66l.82,9.24c.09.55.78.98,1.6.98"/>
  <path class="cls-2" d="M154.82,39.13c.41-.72.38-1.52-.06-1.88l-7.61-5.32c-.79-.46-1.98.09-2.66,1.25-.68,1.16-.54,2.47.24,2.92l8.43,3.91c.54.2,1.24-.17,1.66-.89"/>
  <path class="cls-2" d="M164.83,39.12c.43.71,1.14,1.09,1.66.9l8.43-3.92c.78-.46.9-1.76.24-2.92-.68-1.17-1.87-1.71-2.66-1.26l-7.61,5.32c-.42.36-.45,1.17-.05,1.89"/>
  <path class="cls-2" d="M159.82,47.77c.82,0,1.52.43,1.61.98l.82,9.24c0,.91-1.08,1.66-2.42,1.66s-2.42-.74-2.42-1.66l.82-9.24c.09-.55.78-.98,1.6-.98"/>
  <path class="cls-2" d="M164.83,44.89c.43-.72,1.14-1.1,1.66-.89l8.43,3.91c.78.45.9,1.76.24,2.92-.68,1.16-1.87,1.71-2.66,1.25l-7.61-5.33c-.42-.36-.45-1.16-.05-1.87"/>
  <path class="cls-2" d="M154.82,44.88c.41.72.38,1.52-.06,1.88l-7.61,5.32c-.79.46-1.98-.09-2.66-1.25-.68-1.16-.54-2.47.24-2.92l8.43-3.91c.54-.21,1.24.17,1.66.88"/>
  <path class="cls-2" d="M177.38,51.28h.1c.14,0,.2.05.22.16.03.13.05.21.08.25h.27s-.05-.1-.07-.25c-.03-.14-.1-.21-.2-.24v-.03c.14-.03.22-.12.22-.24,0-.1-.05-.18-.09-.22-.09-.04-.18-.08-.37-.08-.17,0-.29.01-.39.04v1.02h.24v-.41ZM177.39,50.81l.12-.02c.14,0,.22.07.22.16,0,.1-.1.15-.24.15h-.11v-.3ZM177.54,50.12c-.59,0-1.06.46-1.06,1.03s.47,1.04,1.06,1.04,1.05-.46,1.05-1.04-.45-1.03-1.05-1.03M177.54,50.33c.45,0,.79.37.79.82s-.34.84-.79.83c-.45,0-.8-.37-.8-.83s.34-.82.79-.82"/>
</svg>